<?xml version="1.0" encoding="UTF-8"?>
<svg id="Capa_1" data-name="Capa 1" xmlns="http://www.w3.org/2000/svg" viewBox="0 0 310 140">
  <defs>
    <style>
      .cls-1 {
        fill: #fff;
      }
    </style>
  </defs>
  <path class="cls-1" d="M204.56,35.2c1.15,8.07-5.94,13.2-13.46,13.75-25.32,1.83-52.86-1.38-78.41-.06-4.92-.89-9.66-3.81-11.31-8.79-.26-.79-1.32-4.9,0-4.9h31.37c.78-.79,1.04-1.96,1.44-2.97,3.28-8.17,5.45-17.84,9.01-25.79,2.88-6.45,5.2-3.52,9.65-.64,2.68-1.81,4.99-4.65,8.3-1.94l11.79,31.35h31.62Z"/>
  <g>
    <path class="cls-1" d="M38.4,66.57c.86,0,1.96.05,3.31.14,1.35.1,2.79.27,4.31.53,1.52.26,3.06.62,4.63,1.07,1.57.45,2.97,1.03,4.2,1.75,1.23.71,2.24,1.57,3.03,2.57.78,1,1.18,2.16,1.18,3.49,0,1.81-.69,3.22-2.07,4.24-1.38,1.02-2.99,1.53-4.85,1.53-.1,0-.31-.04-.64-.11-.33-.07-.68-.17-1.03-.29-.36-.12-.67-.26-.93-.43-.26-.17-.39-.37-.39-.61,0-.47.27-.87.82-1.18.55-.31,1.14-.57,1.78-.78s1.23-.45,1.78-.71c.55-.26.82-.61.82-1.03,0-.81-.58-1.5-1.75-2.07-1.16-.57-2.57-1.03-4.2-1.39-1.64-.36-3.36-.62-5.17-.78-1.81-.17-3.33-.25-4.56-.25s-2.76.08-4.7.25c-1.95.17-4.05.43-6.31.78-2.26.36-4.55.83-6.88,1.43-2.33.59-4.44,1.31-6.34,2.14-1.9.83-3.47,1.79-4.7,2.89-1.24,1.09-1.9,2.33-2,3.71-.1.81.43,1.6,1.57,2.39,1.14.78,2.64,1.54,4.49,2.28,1.85.74,3.96,1.45,6.31,2.14,2.35.69,4.71,1.35,7.09,2,2.38.64,4.63,1.28,6.77,1.92,2.14.64,3.92,1.25,5.35,1.82,1.38.57,2.86,1.27,4.45,2.1,1.59.83,3.08,1.78,4.45,2.85,1.38,1.07,2.52,2.27,3.42,3.6.9,1.33,1.35,2.8,1.35,4.42,0,1.52-.38,2.82-1.14,3.88-.76,1.07-1.77,1.95-3.03,2.64-1.26.69-2.7,1.19-4.31,1.5-1.62.31-3.28.46-4.99.46-3.85,0-7.59-.37-11.22-1.1-3.63-.74-7.16-1.79-10.58-3.17-1.24-.48-2.54-1.08-3.92-1.82-1.38-.74-2.64-1.59-3.78-2.57-1.14-.97-2.09-2.04-2.85-3.21-.76-1.16-1.14-2.46-1.14-3.88,0-.71.15-1.43.46-2.14.31-.71.76-1.35,1.35-1.92.59-.57,1.32-1.03,2.17-1.39.86-.36,1.85-.53,2.99-.53.24,0,.52.02.86.07.33.05.62.14.86.29.24.14.36.31.36.5s-.24.43-.71.71c-.81.48-1.53.88-2.17,1.21-.64.33-1.19.67-1.64,1-.45.33-.78.68-1,1.03-.21.36-.32.77-.32,1.25,0,.71.22,1.4.68,2.07.45.67,1.01,1.28,1.67,1.85.66.57,1.34,1.07,2.03,1.5.69.43,1.29.76,1.82,1,3.42,1.76,7.1,3.1,11.05,4.03,3.94.93,7.91,1.39,11.9,1.39.71,0,1.65-.02,2.82-.07,1.16-.05,2.32-.21,3.46-.5,1.14-.29,2.11-.71,2.92-1.28.81-.57,1.21-1.4,1.21-2.49,0-1.43-.68-2.72-2.03-3.88-1.35-1.16-3.02-2.23-4.99-3.21-1.97-.97-4.07-1.82-6.31-2.53-2.23-.71-4.2-1.33-5.92-1.85-4.94-1.43-9.16-2.68-12.65-3.78-3.49-1.09-6.32-2.17-8.48-3.24-2.16-1.07-3.73-2.17-4.7-3.31-.97-1.14-1.41-2.49-1.32-4.06.14-2.23.89-4.2,2.25-5.92,1.35-1.71,3.09-3.18,5.2-4.42,2.11-1.23,4.48-2.27,7.09-3.1,2.61-.83,5.23-1.5,7.84-2,2.61-.5,5.12-.86,7.52-1.07,2.4-.21,4.43-.32,6.09-.32Z"/>
    <path class="cls-1" d="M64.69,92.87c.66.14,1.25.45,1.75.93.5.48.91,1,1.25,1.57.38-.43.86-.66,1.43-.71.57-.05,1.12.04,1.64.25.52.21.95.55,1.28,1,.33.45.45.99.36,1.6-.19.86-.37,1.92-.53,3.21-.17,1.28-.27,2.52-.32,3.71-.05,1.19-.01,2.21.11,3.06.12.86.37,1.28.75,1.28.29,0,.63-.37,1.03-1.1.4-.74.81-1.6,1.21-2.6.4-1,.77-2,1.1-2.99.33-1,.55-1.76.64-2.28.14-.47.38-.8.71-.96.33-.17.65-.21.96-.14.31.07.57.25.78.53.21.28.25.64.11,1.07-.1.28-.25.82-.46,1.6-.21.78-.49,1.65-.82,2.6-.33.95-.72,1.94-1.18,2.96-.45,1.02-.97,1.92-1.57,2.71-.59.78-1.26,1.39-2,1.82-.74.43-1.53.52-2.39.28-1.38-.38-2.38-1.21-2.99-2.49-.38,1.14-.9,2.17-1.57,3.1-.67.93-1.52,1.6-2.57,2.03-1,.33-1.88.4-2.64.21-1.38-.38-2.47-1.24-3.28-2.57-.81-1.33-1.35-2.87-1.64-4.63-.29-1.76-.31-3.59-.07-5.49.24-1.9.72-3.61,1.46-5.13.74-1.52,1.72-2.72,2.96-3.6,1.23-.88,2.73-1.15,4.49-.82ZM66.55,100.06c-.1-.81-.27-1.59-.53-2.35-.26-.76-.65-1.19-1.18-1.28-.76-.14-1.44.13-2.03.82-.59.69-1.08,1.6-1.46,2.74-.38,1.14-.65,2.39-.82,3.74-.17,1.35-.21,2.64-.14,3.85.07,1.21.26,2.25.57,3.1.31.85.77,1.33,1.39,1.43.62.1,1.2-.24,1.75-1,.55-.76,1.02-1.73,1.43-2.92.4-1.19.71-2.51.93-3.96.21-1.45.25-2.84.11-4.17Z"/>
    <path class="cls-1" d="M77.59,82.53c0-1.14.31-1.94.93-2.39.62-.45,1.29-.65,2.03-.61.74.05,1.38.31,1.92.78.55.48.75,1.09.61,1.85-.1.57-.25,1.69-.46,3.35-.21,1.66-.42,3.58-.61,5.74-.19,2.16-.36,4.41-.5,6.74-.14,2.33-.23,4.48-.25,6.45-.02,1.97.05,3.59.21,4.85.17,1.26.49,1.89.96,1.89.29,0,.68-.52,1.18-1.57.5-1.04,1-2.23,1.5-3.56.5-1.33.96-2.62,1.39-3.88.43-1.26.71-2.08.86-2.46.09-.43.31-.71.64-.86.33-.14.65-.18.96-.11.31.07.57.24.78.5.21.26.25.61.11,1.03-.29.95-.67,2.28-1.14,3.99-.48,1.71-1.07,3.4-1.78,5.06-.71,1.66-1.57,3.11-2.57,4.35-1,1.23-2.19,1.85-3.56,1.85-1.28,0-2.24-.68-2.89-2.03-.64-1.35-1.08-3.08-1.32-5.17-.24-2.09-.32-4.42-.25-6.98.07-2.57.2-5.07.39-7.52.19-2.45.38-4.68.57-6.7.19-2.02.29-3.55.29-4.6Z"/>
    <path class="cls-1" d="M89.64,109.11c-1.05-.9-1.77-2.02-2.17-3.35-.4-1.33-.52-2.78-.36-4.35.17-1.57.57-3,1.21-4.31.64-1.31,1.48-2.39,2.53-3.24,1.04-.85,2.28-1.23,3.71-1.14,1.66.1,3.02.59,4.06,1.5,1.04.9,1.81,2.02,2.28,3.35.47,1.33.68,2.74.61,4.24-.07,1.5-.42,2.89-1.03,4.17-.62,1.28-1.49,2.35-2.6,3.21-1.12.86-2.46,1.28-4.03,1.28-1.76,0-3.16-.45-4.2-1.35ZM98.55,82.64c-.9.31-1.89.69-2.96,1.14-1.07.45-2.17.96-3.31,1.53-1.14.57-2.21,1.16-3.21,1.78-.38.24-.62.51-.71.82-.1.31-.1.58,0,.82.09.24.29.43.57.57s.59.17.93.07c.76-.29,1.61-.51,2.57-.68.95-.17,1.89-.31,2.82-.43.93-.12,1.77-.24,2.53-.36.76-.12,1.35-.27,1.78-.46.52-.29.99-.75,1.39-1.39.4-.64.69-1.28.86-1.92.17-.64.17-1.19,0-1.64-.17-.45-.56-.61-1.18-.46-.48.1-1.16.3-2.07.61ZM96.05,106.51c.33-.55.57-1.26.71-2.14.14-.88.2-1.84.18-2.89-.02-1.04-.14-2.02-.36-2.92-.21-.9-.51-1.66-.89-2.28-.38-.62-.83-.93-1.35-.93-.48,0-.88.28-1.21.85-.33.57-.58,1.28-.75,2.14-.17.86-.25,1.79-.25,2.82s.09,1.97.29,2.85c.19.88.47,1.63.86,2.25.38.62.88.95,1.5,1,.52.05.95-.2,1.28-.75Z"/>
    <path class="cls-1" d="M103.53,96.36c.14-.95.55-1.66,1.21-2.14.66-.47,1.34-.74,2.03-.78.69-.05,1.29.1,1.82.43.52.33.74.86.64,1.57-.1.67-.23,1.41-.39,2.25-.17.83-.32,1.66-.46,2.49-.14.83-.25,1.62-.32,2.35-.07.74-.08,1.34-.04,1.82.38-1.28.82-2.43,1.32-3.46.5-1.02,1.01-1.89,1.53-2.6.38-.47.9-.84,1.57-1.1.66-.26,1.31-.38,1.92-.36.62.02,1.12.2,1.5.53.38.33.45.81.21,1.43-.14.43-.27,1.09-.39,2-.12.9-.18,1.82-.18,2.74s.05,1.73.14,2.42c.09.69.26,1.03.5,1.03.29,0,.66-.26,1.14-.78.47-.52.95-1.15,1.43-1.89.47-.74.91-1.52,1.32-2.35.4-.83.7-1.56.89-2.17.09-.43.3-.71.61-.86.31-.14.61-.19.89-.14.29.05.52.2.71.46.19.26.24.61.14,1.03-.14.67-.48,1.57-1,2.71-.52,1.14-1.14,2.26-1.85,3.35-.71,1.09-1.5,2.06-2.35,2.89-.86.83-1.69,1.25-2.49,1.25-1.38,0-2.36-.37-2.96-1.1-.59-.74-.99-1.57-1.18-2.49-.19-.93-.26-1.83-.21-2.71.05-.88.02-1.44-.07-1.67-.24.1-.49.43-.75,1-.26.57-.51,1.24-.75,2-.24.76-.45,1.56-.64,2.39-.19.83-.31,1.53-.36,2.1-.1.62-.42,1.08-.96,1.39-.55.31-1.14.46-1.78.46s-1.22-.17-1.75-.5c-.52-.33-.76-.86-.71-1.57.05-.81.05-1.78,0-2.92-.05-1.14-.1-2.34-.14-3.6-.05-1.26-.07-2.48-.07-3.67s.09-2.26.29-3.21Z"/>
    <path class="cls-1" d="M170.88,66.57c.86,0,1.96.05,3.31.14,1.35.1,2.79.27,4.31.53,1.52.26,3.06.62,4.63,1.07,1.57.45,2.97,1.03,4.2,1.75,1.23.71,2.25,1.57,3.03,2.57.78,1,1.18,2.16,1.18,3.49,0,1.81-.69,3.22-2.07,4.24-1.38,1.02-2.99,1.53-4.85,1.53-.1,0-.31-.04-.64-.11-.33-.07-.68-.17-1.03-.29-.36-.12-.67-.26-.93-.43-.26-.17-.39-.37-.39-.61,0-.47.27-.87.82-1.18.55-.31,1.14-.57,1.78-.78s1.23-.45,1.78-.71c.55-.26.82-.61.82-1.03,0-.81-.58-1.5-1.75-2.07-1.16-.57-2.57-1.03-4.2-1.39-1.64-.36-3.36-.62-5.17-.78-1.81-.17-3.33-.25-4.56-.25s-2.76.08-4.7.25c-1.95.17-4.05.43-6.31.78-2.26.36-4.55.83-6.88,1.43-2.33.59-4.44,1.31-6.34,2.14-1.9.83-3.47,1.79-4.7,2.89-1.24,1.09-1.9,2.33-2,3.71-.1.81.43,1.6,1.57,2.39,1.14.78,2.64,1.54,4.49,2.28,1.85.74,3.96,1.45,6.31,2.14,2.35.69,4.71,1.35,7.09,2,2.38.64,4.63,1.28,6.77,1.92,2.14.64,3.92,1.25,5.35,1.82,1.38.57,2.86,1.27,4.45,2.1,1.59.83,3.08,1.78,4.45,2.85,1.38,1.07,2.52,2.27,3.42,3.6.9,1.33,1.35,2.8,1.35,4.42,0,1.52-.38,2.82-1.14,3.88-.76,1.07-1.77,1.95-3.03,2.64-1.26.69-2.7,1.19-4.31,1.5-1.62.31-3.28.46-4.99.46-3.85,0-7.59-.37-11.22-1.1-3.63-.74-7.16-1.79-10.58-3.17-1.24-.48-2.54-1.08-3.92-1.82-1.38-.74-2.64-1.59-3.78-2.57-1.14-.97-2.09-2.04-2.85-3.21-.76-1.16-1.14-2.46-1.14-3.88,0-.71.15-1.43.46-2.14.31-.71.76-1.35,1.35-1.92.59-.57,1.32-1.03,2.17-1.39.86-.36,1.85-.53,2.99-.53.24,0,.52.02.86.07.33.05.62.14.86.29.24.14.36.31.36.5s-.24.43-.71.71c-.81.48-1.53.88-2.17,1.21-.64.33-1.19.67-1.64,1-.45.33-.78.68-1,1.03-.21.36-.32.77-.32,1.25,0,.71.22,1.4.68,2.07.45.67,1.01,1.28,1.67,1.85.66.57,1.34,1.07,2.03,1.5.69.43,1.29.76,1.82,1,3.42,1.76,7.1,3.1,11.05,4.03,3.94.93,7.91,1.39,11.9,1.39.71,0,1.65-.02,2.82-.07,1.16-.05,2.32-.21,3.46-.5,1.14-.29,2.11-.71,2.92-1.28.81-.57,1.21-1.4,1.21-2.49,0-1.43-.68-2.72-2.03-3.88-1.35-1.16-3.02-2.23-4.99-3.21-1.97-.97-4.07-1.82-6.31-2.53-2.23-.71-4.2-1.33-5.92-1.85-4.94-1.43-9.16-2.68-12.65-3.78-3.49-1.09-6.32-2.17-8.48-3.24-2.16-1.07-3.73-2.17-4.7-3.31-.97-1.14-1.41-2.49-1.32-4.06.14-2.23.89-4.2,2.25-5.92,1.35-1.71,3.09-3.18,5.2-4.42,2.11-1.23,4.48-2.27,7.09-3.1,2.61-.83,5.23-1.5,7.84-2,2.61-.5,5.12-.86,7.52-1.07,2.4-.21,4.43-.32,6.09-.32Z"/>
    <path class="cls-1" d="M195.25,110.47c-1.76,0-3.16-.45-4.2-1.35-1.05-.9-1.77-2.02-2.17-3.35-.4-1.33-.52-2.78-.36-4.35.17-1.57.57-3,1.21-4.31.64-1.31,1.48-2.39,2.53-3.24,1.04-.85,2.28-1.23,3.71-1.14,1.66.1,3.02.59,4.06,1.5,1.04.9,1.81,2.02,2.28,3.35.47,1.33.68,2.74.61,4.24-.07,1.5-.42,2.89-1.03,4.17-.62,1.28-1.49,2.35-2.6,3.21-1.12.86-2.46,1.28-4.03,1.28ZM196.18,107.26c.52.05.95-.2,1.28-.75.33-.55.57-1.26.71-2.14.14-.88.2-1.84.18-2.89-.02-1.04-.14-2.02-.36-2.92-.21-.9-.51-1.66-.89-2.28-.38-.62-.83-.93-1.35-.93-.48,0-.88.28-1.21.85-.33.57-.58,1.28-.75,2.14-.17.86-.25,1.79-.25,2.82s.09,1.97.28,2.85c.19.88.47,1.63.86,2.25.38.62.88.95,1.5,1Z"/>
    <path class="cls-1" d="M204.87,95.43c.19-1.04.64-1.86,1.35-2.46.71-.59,1.44-1,2.17-1.21.74-.21,1.38-.24,1.92-.07.55.17.75.53.61,1.1-.14.67-.31,1.57-.5,2.71-.19,1.14-.36,2.3-.5,3.49-.14,1.19-.26,2.32-.36,3.39-.1,1.07-.14,1.84-.14,2.32.19-.66.43-1.35.71-2.07.28-.71.58-1.41.89-2.1.31-.69.63-1.32.96-1.89.33-.57.64-1.02.93-1.35.33-.47.84-.84,1.53-1.1.69-.26,1.33-.39,1.92-.39s1.08.17,1.46.5c.38.33.45.81.21,1.43-.1.29-.19.83-.29,1.64-.1.81-.19,1.69-.28,2.64.28-.66.66-1.4,1.14-2.21.47-.81.95-1.58,1.43-2.32.47-.74.91-1.41,1.32-2.03.4-.62.72-1.07.96-1.35.33-.47.83-.87,1.5-1.18.66-.31,1.31-.46,1.92-.46s1.14.15,1.57.46c.43.31.62.82.57,1.53-.05.33-.13.9-.25,1.71-.12.81-.27,1.73-.46,2.78-.19,1.05-.37,2.14-.53,3.28-.17,1.14-.31,2.17-.43,3.1-.12.93-.19,1.7-.21,2.32-.02.62.06.93.25.93.29,0,.66-.33,1.14-1,.47-.66.94-1.46,1.39-2.39.45-.93.88-1.89,1.28-2.89.4-1,.7-1.8.89-2.42.14-.43.37-.72.68-.89.31-.17.61-.21.89-.14s.52.24.71.5c.19.26.24.61.14,1.03-.14.67-.46,1.6-.96,2.82s-1.1,2.44-1.82,3.67c-.71,1.24-1.5,2.35-2.35,3.35-.86,1-1.73,1.57-2.64,1.71-1,.19-1.79.07-2.39-.36-.59-.43-1.02-1.04-1.28-1.85-.26-.81-.42-1.72-.46-2.74-.05-1.02-.02-2.03.07-3.03.09-1,.21-1.89.36-2.67.14-.78.29-1.37.43-1.75-.24.1-.59.55-1.07,1.35-.48.81-.96,1.7-1.46,2.67-.5.97-.96,1.92-1.39,2.85-.43.93-.71,1.56-.85,1.89v-.07c-.1.28-.32.61-.68.96s-.77.64-1.25.85c-.48.21-.92.32-1.32.32s-.68-.24-.82-.71c-.14-.47-.24-1.13-.28-1.96-.05-.83-.07-1.64-.07-2.42s.01-1.5.04-2.14c.02-.64.01-1.03-.04-1.18-.24.1-.5.52-.78,1.28-.28.76-.58,1.62-.89,2.57-.31.95-.58,1.92-.82,2.92-.24,1-.4,1.78-.5,2.35-.1.62-.42,1.08-.96,1.39-.55.31-1.14.46-1.78.46s-1.21-.17-1.71-.5c-.5-.33-.73-.86-.68-1.57.05-.81.04-1.89-.04-3.24s-.14-2.77-.21-4.24c-.07-1.47-.11-2.92-.11-4.35s.07-2.61.21-3.56Z"/>
    <path class="cls-1" d="M231.88,81.61c0-1.14.31-1.94.93-2.39.62-.45,1.28-.65,2-.61.71.05,1.34.31,1.89.78.55.48.75,1.09.61,1.85-.05.24-.12.77-.21,1.6-.1.83-.19,1.88-.29,3.14-.1,1.26-.21,2.66-.36,4.2-.14,1.54-.29,3.15-.43,4.81.43-.47.93-.85,1.5-1.14.57-.28,1.26-.43,2.07-.43,1.38,0,2.49.45,3.35,1.35.86.9,1.47,2.04,1.85,3.42.38,1.38.51,2.85.39,4.42-.12,1.57-.46,3.04-1.03,4.42-.57,1.38-1.38,2.52-2.42,3.42-1.05.9-2.28,1.35-3.71,1.35-1.24,0-2.23-.43-2.99-1.28v2.07c-.05.66-.35,1.18-.89,1.53-.55.36-1.14.55-1.78.57-.64.02-1.21-.12-1.71-.43-.5-.31-.72-.82-.68-1.53.1-1.19.21-2.72.36-4.6.14-1.88.28-3.88.43-6.02.14-2.14.29-4.31.43-6.52.14-2.21.26-4.26.36-6.16.09-1.9.18-3.55.25-4.95.07-1.4.11-2.36.11-2.89ZM235.45,103.41c-.05.28-.08.58-.11.89-.02.31-.04.63-.04.96.09.95.3,1.75.61,2.39.31.64.8,1.01,1.46,1.1.43.1.83-.14,1.21-.71.38-.57.7-1.31.96-2.21.26-.9.46-1.9.61-2.99.14-1.09.22-2.13.25-3.1.02-.97-.04-1.79-.18-2.46-.14-.66-.36-1.04-.64-1.14-.52-.14-1.01,0-1.46.43-.45.43-.85,1.01-1.21,1.75-.36.74-.67,1.57-.93,2.49-.26.93-.44,1.79-.53,2.6Z"/>
    <path class="cls-1" d="M250.27,100.7c-.1.38-.3.65-.61.82-.31.17-.63.21-.96.14-.33-.07-.59-.24-.78-.5-.19-.26-.19-.61,0-1.03l.43-1.21c-.43-.43-.66-.93-.71-1.5-.05-.57.05-1.1.28-1.6.24-.5.58-.93,1.03-1.28.45-.36.96-.53,1.53-.53,1,0,1.54.37,1.64,1.1.09.74-.05,1.56-.43,2.46.29.14.75.17,1.39.07.64-.09,1.25-.15,1.82-.18.57-.02,1.04.08,1.43.32.38.24.47.78.28,1.64-.19.86-.39,1.88-.61,3.06-.21,1.19-.37,2.32-.46,3.39-.1,1.07-.1,1.98,0,2.74.09.76.36,1.14.78,1.14.28,0,.65-.42,1.1-1.25.45-.83.91-1.79,1.39-2.89.47-1.09.9-2.2,1.28-3.31.38-1.12.62-1.96.71-2.53.09-.47.3-.81.61-1,.31-.19.63-.27.96-.25.33.02.61.17.82.43.21.26.3.63.25,1.1-.05.24-.17.75-.36,1.53-.19.78-.45,1.66-.78,2.64-.33.97-.74,2-1.21,3.06-.48,1.07-1.05,2.06-1.71,2.96-.67.9-1.4,1.63-2.21,2.17-.81.55-1.71.8-2.71.75-1.14-.05-1.97-.56-2.49-1.53-.52-.97-.86-2.14-1-3.49-.14-1.35-.11-2.79.11-4.31.21-1.52.51-2.85.89-3.99-.24.05-.48.07-.71.07h-.71c-.14.24-.24.5-.28.78Z"/>
    <path class="cls-1" d="M272.65,99.85c-.38.52-.86.95-1.43,1.28-.57.33-1.19.61-1.85.82-.67.21-1.34.37-2.03.46-.69.1-1.29.17-1.82.21-.14,1-.23,1.97-.25,2.92-.02.95.02,1.81.14,2.57.12.76.31,1.4.57,1.92.26.52.63.85,1.1,1,.62.19,1.28.08,2-.32.71-.4,1.4-.96,2.07-1.67.66-.71,1.31-1.54,1.92-2.49.62-.95,1.16-1.86,1.64-2.74.47-.88.88-1.69,1.21-2.42.33-.74.55-1.27.64-1.6.14-.43.37-.71.68-.86.31-.14.61-.19.89-.14.28.05.52.2.71.46.19.26.24.61.14,1.03-.1.28-.26.84-.5,1.67-.24.83-.58,1.77-1.03,2.81-.45,1.05-1,2.13-1.64,3.24-.64,1.12-1.41,2.14-2.32,3.06-.9.93-1.94,1.7-3.1,2.32-1.16.62-2.46.93-3.88.93-1.71,0-3.04-.6-3.99-1.78-.95-1.19-1.59-2.68-1.92-4.49-.33-1.81-.39-3.74-.18-5.81.21-2.07.64-4,1.28-5.81.64-1.81,1.45-3.3,2.42-4.49.97-1.19,2.05-1.78,3.24-1.78s2.15.39,3.03,1.18c.88.78,1.56,1.7,2.03,2.74.47,1.05.75,2.11.82,3.21.07,1.09-.13,1.95-.61,2.57ZM268.23,93.51c-.33.14-.69.75-1.07,1.82-.38,1.07-.74,2.36-1.07,3.88.52,0,1.04-.06,1.57-.18.52-.12.9-.37,1.14-.75.19-.28.31-.7.36-1.25.05-.55.04-1.1-.04-1.67-.07-.57-.19-1.04-.36-1.43-.17-.38-.35-.52-.53-.43Z"/>
    <path class="cls-1" d="M278.78,100.7c-.1.38-.3.65-.61.82-.31.17-.63.21-.96.14-.33-.07-.59-.24-.78-.5-.19-.26-.19-.61,0-1.03l.43-1.21c-.43-.43-.66-.93-.71-1.5-.05-.57.05-1.1.28-1.6.24-.5.58-.93,1.03-1.28.45-.36.96-.53,1.53-.53,1,0,1.54.37,1.64,1.1.09.74-.05,1.56-.43,2.46.29.14.75.17,1.39.07.64-.09,1.25-.15,1.82-.18.57-.02,1.04.08,1.43.32.38.24.47.78.28,1.64-.19.86-.39,1.88-.61,3.06-.21,1.19-.37,2.32-.46,3.39-.1,1.07-.1,1.98,0,2.74.09.76.36,1.14.78,1.14.28,0,.65-.42,1.1-1.25.45-.83.91-1.79,1.39-2.89.47-1.09.9-2.2,1.28-3.31.38-1.12.62-1.96.71-2.53.09-.47.3-.81.61-1,.31-.19.63-.27.96-.25.33.02.61.17.82.43.21.26.3.63.25,1.1-.05.24-.17.75-.36,1.53-.19.78-.45,1.66-.78,2.64-.33.97-.74,2-1.21,3.06-.48,1.07-1.05,2.06-1.71,2.96-.67.9-1.4,1.63-2.21,2.17-.81.55-1.71.8-2.71.75-1.14-.05-1.97-.56-2.49-1.53-.52-.97-.86-2.14-1-3.49-.14-1.35-.11-2.79.11-4.31.21-1.52.51-2.85.89-3.99-.24.05-.48.07-.71.07h-.71c-.14.24-.24.5-.28.78Z"/>
    <path class="cls-1" d="M295.81,110.47c-1.76,0-3.16-.45-4.2-1.35-1.05-.9-1.77-2.02-2.17-3.35-.4-1.33-.52-2.78-.36-4.35.17-1.57.57-3,1.21-4.31.64-1.31,1.48-2.39,2.53-3.24,1.04-.85,2.28-1.23,3.71-1.14,1.66.1,3.02.59,4.06,1.5,1.04.9,1.81,2.02,2.28,3.35.47,1.33.68,2.74.61,4.24-.07,1.5-.42,2.89-1.03,4.17-.62,1.28-1.49,2.35-2.6,3.21-1.12.86-2.46,1.28-4.03,1.28ZM296.73,107.26c.52.05.95-.2,1.28-.75.33-.55.57-1.26.71-2.14.14-.88.2-1.84.18-2.89-.02-1.04-.14-2.02-.36-2.92-.21-.9-.51-1.66-.89-2.28-.38-.62-.83-.93-1.35-.93-.48,0-.88.28-1.21.85-.33.57-.58,1.28-.75,2.14-.17.86-.25,1.79-.25,2.82s.09,1.97.29,2.85c.19.88.47,1.63.86,2.25.38.62.88.95,1.5,1Z"/>
  </g>
  <g>
    <path class="cls-1" d="M107.11,130.1c-.2-.24-.44-.42-.72-.55-.28-.13-.61-.19-.99-.19s-.72.07-1.04.22c-.32.14-.59.35-.83.61-.23.26-.42.57-.55.92-.13.36-.2.74-.2,1.16s.07.81.2,1.17c.13.35.31.66.54.92.23.26.5.46.81.61s.64.22,1,.22c.41,0,.77-.08,1.08-.25s.57-.41.78-.71l1.66,1.24c-.38.54-.87.93-1.45,1.19-.59.25-1.19.38-1.81.38-.71,0-1.36-.11-1.95-.33s-1.11-.54-1.54-.95c-.43-.41-.77-.91-1.01-1.5s-.36-1.24-.36-1.96.12-1.38.36-1.96.58-1.09,1.01-1.5c.43-.41.95-.73,1.54-.95.59-.22,1.24-.33,1.95-.33.25,0,.52.02.8.07.28.05.55.12.82.22s.52.24.77.41c.25.17.47.38.66.62l-1.53,1.25Z"/>
    <path class="cls-1" d="M120.17,127.76h1.64l3.93,9.02h-2.24l-.78-1.91h-3.5l-.75,1.91h-2.19l3.9-9.02ZM120.94,130.39l-1.1,2.8h2.2l-1.11-2.8Z"/>
    <path class="cls-1" d="M133.91,127.76h2.7l3.84,6.27h.02v-6.27h1.99v9.02h-2.6l-3.94-6.42h-.03v6.42h-1.99v-9.02Z"/>
    <path class="cls-1" d="M153.31,129.52h-2.57v-1.76h7.14v1.76h-2.57v7.26h-1.99v-7.26Z"/>
    <path class="cls-1" d="M166.12,127.76h1.99v9.02h-1.99v-9.02Z"/>
    <path class="cls-1" d="M177.18,127.76h2.7l3.84,6.27h.03v-6.27h1.99v9.02h-2.6l-3.94-6.42h-.03v6.42h-1.99v-9.02Z"/>
    <path class="cls-1" d="M197.8,127.76h1.64l3.93,9.02h-2.24l-.78-1.91h-3.5l-.75,1.91h-2.19l3.9-9.02ZM198.56,130.39l-1.1,2.8h2.2l-1.11-2.8Z"/>
  </g>
</svg>