<?xml version="1.0" encoding="UTF-8"?>
<svg id="Capa_1" data-name="Capa 1" xmlns="http://www.w3.org/2000/svg" viewBox="0 0 35 35">
  <defs>
    <style>
      .cls-1 {
        fill: #fcf8ed;
      }
    </style>
  </defs>
  <circle class="cls-1" cx="17.88" cy="18.14" r="14.23"/>
  <g id="F737_Frost_snow_snowflakes" data-name="F737, Frost, snow, snowflakes">
    <path d="M17.33,18.52c-.21,0-.39-.18-.39-.39v-8.56c0-.21.18-.39.39-.39s.39.18.39.39v8.59c0,.18-.18.36-.39.36Z"/>
    <path d="M17.33,13.3c-.09,0-.18-.03-.27-.12l-2.26-2.24c-.15-.15-.15-.39,0-.54.15-.15.39-.15.54,0l2.26,2.24c.15.15.15.39,0,.54-.09.06-.18.12-.27.12Z"/>
    <path d="M17.33,13.3c-.09,0-.18-.03-.27-.12-.15-.15-.15-.39,0-.54l2.26-2.24c.15-.15.39-.15.54,0,.15.15.15.39,0,.54l-2.26,2.24c-.09.06-.18.12-.27.12Z"/>
    <path d="M17.33,27.08c-.21,0-.39-.18-.39-.39v-8.56c0-.21.18-.39.39-.39s.39.18.39.39v8.59c0,.18-.18.36-.39.36Z"/>
    <path d="M15.07,25.98c-.09,0-.18-.03-.27-.12-.15-.15-.15-.39,0-.54l2.26-2.24c.15-.15.39-.15.54,0,.15.15.15.39,0,.54l-2.26,2.24c-.09.06-.18.12-.27.12Z"/>
    <path d="M19.59,25.98c-.09,0-.18-.03-.27-.12l-2.26-2.24c-.15-.15-.15-.39,0-.54s.39-.15.54,0l2.26,2.24c.15.15.15.39,0,.54-.09.06-.18.12-.27.12Z"/>
    <path d="M17.33,18.52c-.09,0-.18-.03-.27-.12-.15-.15-.15-.39,0-.54l6.12-6.06c.15-.15.39-.15.54,0s.15.39,0,.54l-6.12,6.06c-.09.06-.18.12-.27.12Z"/>
    <path d="M21.06,14.82c-.21,0-.39-.18-.39-.39v-3.16c0-.21.18-.39.39-.39s.39.18.39.39v3.16c-.03.21-.18.39-.39.39Z"/>
    <path d="M24.26,14.82h-3.19c-.21,0-.39-.18-.39-.39s.18-.39.39-.39h3.19c.21,0,.39.18.39.39s-.18.39-.39.39Z"/>
    <path d="M11.21,24.58c-.09,0-.18-.03-.27-.12-.15-.15-.15-.39,0-.54l6.12-6.06c.15-.15.39-.15.54,0,.15.15.15.39,0,.54l-6.12,6.06c-.09.09-.18.12-.27.12Z"/>
    <path d="M13.59,22.19h-3.19c-.21,0-.39-.18-.39-.39s.18-.39.39-.39h3.19c.21,0,.39.18.39.39,0,.24-.18.39-.39.39Z"/>
    <path d="M13.59,25.35c-.21,0-.39-.18-.39-.39v-3.13c0-.21.18-.39.39-.39s.39.18.39.39v3.16c0,.21-.18.36-.39.36Z"/>
    <path d="M26,18.52h-8.68c-.21,0-.39-.18-.39-.39s.18-.39.39-.39h8.68c.21,0,.39.18.39.39-.03.21-.21.39-.39.39Z"/>
    <path d="M22.6,18.52c-.09,0-.18-.03-.27-.12-.15-.15-.15-.39,0-.54l2.26-2.24c.15-.15.39-.15.54,0,.15.15.15.39,0,.54l-2.26,2.24c-.09.06-.18.12-.27.12Z"/>
    <path d="M24.86,20.76c-.09,0-.18-.03-.27-.12l-2.26-2.24c-.15-.15-.15-.39,0-.54s.39-.15.54,0l2.26,2.24c.15.15.15.39,0,.54-.09.06-.18.12-.27.12Z"/>
    <path d="M17.33,18.52h-8.65c-.21,0-.39-.18-.39-.39s.18-.39.39-.39h8.68c.21,0,.39.18.39.39-.03.21-.21.39-.42.39Z"/>
    <path d="M12.06,18.52c-.09,0-.18-.03-.27-.12l-2.26-2.24c-.15-.15-.15-.39,0-.54.15-.15.39-.15.54,0l2.26,2.24c.15.15.15.39,0,.54-.09.06-.18.12-.27.12Z"/>
    <path d="M9.8,20.76c-.09,0-.18-.03-.27-.12-.15-.15-.15-.39,0-.54l2.26-2.24c.15-.15.39-.15.54,0s.15.39,0,.54l-2.26,2.24c-.09.06-.18.12-.27.12Z"/>
    <path d="M23.44,24.58c-.09,0-.18-.03-.27-.12l-6.12-6.06c-.15-.15-.15-.39,0-.54s.39-.15.54,0l6.12,6.06c.15.15.15.39,0,.54-.06.09-.18.12-.27.12Z"/>
    <path d="M24.26,22.19h-3.19c-.21,0-.39-.18-.39-.39s.18-.39.39-.39h3.19c.21,0,.39.18.39.39-.03.24-.18.39-.39.39Z"/>
    <path d="M21.06,25.35c-.21,0-.39-.18-.39-.39v-3.13c0-.21.18-.39.39-.39s.39.18.39.39v3.16c-.03.21-.18.36-.39.36Z"/>
    <path d="M17.33,18.52c-.09,0-.18-.03-.27-.12l-6.12-6.06c-.15-.15-.15-.39,0-.54s.39-.15.54,0l6.12,6.06c.15.15.15.39,0,.54-.09.06-.18.12-.27.12Z"/>
    <path d="M13.59,14.82c-.21,0-.39-.18-.39-.39v-3.16c0-.21.18-.39.39-.39s.39.18.39.39v3.16c0,.21-.18.39-.39.39Z"/>
    <path d="M13.59,14.82h-3.19c-.21,0-.39-.18-.39-.39s.18-.39.39-.39h3.19c.21,0,.39.18.39.39s-.18.39-.39.39Z"/>
  </g>
</svg>