<?xml version="1.0" encoding="UTF-8"?>
<svg id="Capa_1" data-name="Capa 1" xmlns="http://www.w3.org/2000/svg" viewBox="0 0 35 35">
  <defs>
    <style>
      .cls-1 {
        fill: #fcf8ed;
      }

      .cls-2 {
        fill: #1c1c1c;
      }
    </style>
  </defs>
  <circle class="cls-1" cx="17.63" cy="18.91" r="14.23"/>
  <path class="cls-2" d="M22.14,11.18c-1.22,0-2.2.96-2.2,2.17v3.35h-6.82v-3.35c0-.78.63-1.4,1.41-1.4s1.41.62,1.41,1.4v1.4c0,.22.19.4.41.4s.41-.19.41-.4v-1.4c0-1.21-.97-2.17-2.2-2.17s-2.2.96-2.2,2.17v7.33c0,.22.19.4.41.4s.41-.19.41-.4v-1.18h6.82v1.18c0,.22.19.4.41.4s.41-.19.41-.4v-7.33c0-.78.63-1.4,1.41-1.4s1.41.62,1.41,1.4v3.76c0,.22.19.4.41.4s.41-.19.41-.4v-3.76c-.13-1.21-1.1-2.17-2.32-2.17ZM13.12,18.69v-1.18h6.82v1.18h-6.82Z"/>
  <path class="cls-2" d="M12.71,23.44c-.22,0-.41.19-.41.4v1.99c0,.22.19.4.41.4s.41-.19.41-.4v-1.99c0-.22-.19-.4-.41-.4Z"/>
  <path class="cls-2" d="M20.35,25.83c.22,0,.41-.19.41-.4v-1.58c0-.22-.19-.4-.41-.4s-.41.19-.41.4v1.58c0,.22.19.4.41.4Z"/>
  <path class="cls-2" d="M22.73,19.5c.22,0,.41-.19.41-.4s-.19-.4-.41-.4-.41.19-.41.4.19.4.41.4Z"/>
  <path class="cls-2" d="M23.52,21.45c-.22,0-.41.19-.41.4s-.19.4-.41.4-.38-.19-.38-.4-.19-.4-.41-.4-.41.19-.41.4-.19.4-.41.4-.41-.19-.41-.4-.19-.4-.41-.4-.41.19-.41.4-.19.4-.41.4-.41-.19-.41-.4-.19-.4-.41-.4-.41.19-.41.4-.19.4-.41.4-.41-.19-.41-.4-.19-.4-.41-.4-.41.19-.41.4-.19.4-.41.4-.41-.19-.41-.4-.19-.4-.41-.4-.41.19-.41.4-.19.4-.41.4-.41-.19-.41-.4-.19-.4-.41-.4-.22.19-.22.4-.19.4-.41.4-.41-.19-.41-.4-.19-.4-.41-.4-.41.19-.41.4-.19.4-.41.4-.41-.19-.41-.4-.19-.4-.41-.4-.41.19-.41.4-.19.4-.41.4-.41-.19-.41-.4-.19-.4-.41-.4-.41.19-.41.4c0,1.02,1.22,1.55,2.01.87.47.4,1.13.4,1.6,0,.44.4,1.13.4,1.6,0,.47.4,1.16.4,1.6,0,.47.4,1.16.4,1.6,0,.47.4,1.16.4,1.6,0,.47.4,1.16.4,1.6,0,.47.4,1.16.4,1.6,0,.75.68,2.01.16,2.01-.87.06-.22-.09-.4-.35-.4Z"/>
</svg>