<?xml version="1.0" encoding="UTF-8"?>
<svg id="Capa_1" data-name="Capa 1" xmlns="http://www.w3.org/2000/svg" viewBox="0 0 35 35">
  <defs>
    <style>
      .cls-1 {
        fill: #fcf8ed;
      }
    </style>
  </defs>
  <circle class="cls-1" cx="17.5" cy="17.93" r="14.23"/>
  <g id="A53_Green_Leaf_Plant_Tree" data-name="A53 ,Green ,Leaf ,Plant ,Tree">
    <g>
      <path d="M26.7,16.65c-1.06-.3-2.19-.33-3.26-.13.03-.59.03-1.22-.07-1.81-.07-.3-.13-.62-.23-.92-.07-.23-.13-.56-.37-.69-.23-.13-.53.03-.76.1-.3.1-.56.2-.83.3-.56.26-1.1.56-1.56.95-.23-.53-.53-1.02-.86-1.48-.17-.23-.37-.43-.56-.62-.17-.2-.43-.49-.7-.53-.27-.03-.47.23-.66.39-.23.23-.43.46-.63.69-.37.46-.7.99-.93,1.54-.46-.36-.93-.66-1.46-.92-.27-.13-.56-.23-.83-.33-.23-.07-.56-.23-.8-.13-.27.1-.33.39-.4.62-.1.3-.17.59-.23.92-.13.62-.17,1.28-.1,1.9-.76-.16-1.56-.16-2.36-.07-.3.03-.8.07-1.03.26-.27.2-.17.53-.1.79.2,1.25.8,2.43,1.63,3.42,1.86,2.2,5.02,3.45,7.87,2.69,2.39.62,4.98-.13,6.84-1.67.83-.69,1.53-1.54,2.03-2.5.23-.46.43-.95.53-1.44.07-.33.37-1.18-.17-1.35-.6-.16.2.07,0,0ZM19.93,15.28c.73-.62,1.53-1.05,2.39-1.31,1.06,3.09-.56,6.73-3.42,8.24,1.4-1.97,1.76-4.6,1.03-6.93.7-.59.2.72,0,0ZM17.44,12.81c2.69,2.53,2.69,7.32,0,9.85-2.69-2.53-2.69-7.32,0-9.85,1.2,1.12-1.2,1.12,0,0ZM12.55,13.99c.86.23,1.66.69,2.39,1.31-.73,2.3-.4,4.96,1.03,6.93-2.86-1.51-4.48-5.16-3.42-8.24.86.23-.5,1.48,0,0ZM11.72,21.78c-1.59-1.08-2.69-2.69-2.99-4.43.93-.2,1.89-.16,2.82.03.47,2.36,1.99,4.53,4.19,5.62-1.39.03-2.82-.39-4.02-1.21-1.59-1.08,1.2.82,0,0ZM23.15,21.78c-1.2.82-2.62,1.25-4.02,1.25,2.19-1.08,3.72-3.25,4.19-5.62.93-.2,1.89-.23,2.82-.03-.3,1.71-1.4,3.32-2.99,4.4-1.2.82,1.59-1.08,0,0Z"/>
      <path d="M21.12,18.3c.4,0,.66-.62.8-.92.13-.36.2-.76.17-1.12,0-.33-.03-1.15-.46-1.21-.33-.07-.56.26-.46.56.07.23.1.46.1.69,0,.39-.07.79-.3,1.12-.1.16-.3.3-.27.53.07.2.23.36.43.36Z"/>
      <path d="M13.65,18.3c.17,0,.33-.13.4-.3.07-.23-.07-.36-.2-.53-.23-.33-.33-.72-.33-1.12,0-.36.4-1.35-.27-1.35-.5,0-.53.82-.53,1.18-.03.36.03.76.13,1.12.1.33.37.99.8.99Z"/>
      <path d="M17.4,15.01c.23,0,.43-.2.43-.43v-.43c0-.53-.83-.53-.83,0v.43c-.03.23.17.43.4.43Z"/>
      <path d="M17.4,16.65c.23,0,.43-.2.43-.43v-.43c0-.53-.83-.53-.83,0v.43c-.03.23.17.43.4.43Z"/>
      <path d="M17.4,17.05c-.53,0-.53.82,0,.82s.53-.82,0-.82Z"/>
      <path d="M9.93,23.65c-.66,0-1.26.56-1.26,1.25s.56,1.25,1.26,1.25,1.26-.56,1.26-1.25c-.03-.69-.6-1.25-1.26-1.25ZM9.93,25.29c-.53,0-.53-.82,0-.82s.53.82,0,.82Z"/>
      <path d="M23.61,12.16c.9,0,1.66-.76,1.66-1.64s-.76-1.64-1.66-1.64-1.66.76-1.66,1.64.76,1.64,1.66,1.64ZM23.61,9.69c1.06,0,1.06,1.64,0,1.64s-1.06-1.64,0-1.64Z"/>
      <path d="M9.93,12.55c.66,0,1.26-.56,1.26-1.25s-.6-1.22-1.26-1.22-1.26.56-1.26,1.25.56,1.22,1.26,1.22ZM9.93,10.91c.53,0,.53.82,0,.82s-.53-.82,0-.82Z"/>
    </g>
  </g>
</svg>