<?xml version="1.0" encoding="UTF-8"?>
<svg id="Capa_1" data-name="Capa 1" xmlns="http://www.w3.org/2000/svg" viewBox="0 0 35 35">
  <defs>
    <style>
      .cls-1 {
        fill: #fcf8ed;
      }
    </style>
  </defs>
  <circle class="cls-1" cx="17.63" cy="15.9" r="14.23"/>
  <g>
    <path d="M17.48,11.11c-3.14,0-5.7,2.56-5.7,5.7s2.56,5.7,5.7,5.7,5.7-2.56,5.7-5.7-2.56-5.7-5.7-5.7ZM17.48,21.84c-2.77,0-5.03-2.26-5.03-5.03s2.26-5.03,5.03-5.03,5.03,2.26,5.03,5.03-2.26,5.03-5.03,5.03Z"/>
    <path d="M27.4,8.98c-.11-.06-.24-.05-.34.01-.1.06-2.47,1.64-2.47,6.89,0,.18.15.33.33.33h1.98v6.32c0,.18.15.33.33.33s.33-.15.33-.33v-13.26c0-.12-.07-.23-.17-.29ZM25.26,15.55c.05-2.35.61-3.83,1.08-4.68.2-.35.39-.62.56-.82v5.5h-1.64Z"/>
    <path d="M10.75,8.94c-.18,0-.33.15-.33.33v4.19c0,.06-.05.11-.11.11h-.82v-4.3c0-.18-.15-.33-.33-.33s-.33.15-.33.33v4.3h-.82c-.06,0-.11-.05-.11-.11v-4.19c0-.18-.15-.33-.33-.33s-.33.15-.33.33v4.19c0,.43.35.78.78.78h.82v8.29c0,.18.15.33.33.33s.33-.15.33-.33v-8.29h.82c.43,0,.78-.35.78-.78v-4.19c0-.18-.15-.33-.33-.33Z"/>
  </g>
</svg>