<?xml version="1.0" encoding="UTF-8"?>
<svg id="Capa_1" data-name="Capa 1" xmlns="http://www.w3.org/2000/svg" viewBox="0 0 35 35">
  <defs>
    <style>
      .cls-1 {
        fill: #fcf8ed;
      }
    </style>
  </defs>
  <circle class="cls-1" cx="17.99" cy="18.79" r="14.23"/>
  <path d="M25.43,17.17c0-.89-.21-1.76-.61-2.51-.05-.09-.14-.15-.25-.15h-4.9c.16-.87.24-1.88.24-3,0-.15-.12-.28-.28-.28h-9.81c-.15,0-.28.12-.28.28,0,2.8.49,4.78,1.5,6.03.81,1,1.92,1.52,3.41,1.58v6.35h-1.96c-.15,0-.28.12-.28.28s.12.28.28.28h4.48c.15,0,.28-.12.28-.28s-.12-.28-.28-.28h-1.96v-6.35c.72-.03,1.35-.16,1.9-.41.55,1.87,2.06,3.25,3.87,3.38v3.39h-1.96c-.15,0-.28.12-.28.28s.12.28.28.28h4.48c.15,0,.28-.12.28-.28s-.12-.28-.28-.28h-1.96v-3.39c2.28-.16,4.09-2.31,4.09-4.92ZM24.86,16.84h-7.61c.04-.62.2-1.23.46-1.78h6.68c.26.55.42,1.15.46,1.78ZM19.36,11.79c0,.6-.04,1.16-.1,1.69h-9.06c-.06-.51-.09-1.07-.1-1.69h9.25ZM14.73,18.57c-1.68,0-3.84-.53-4.46-4.54h8.91c-.03.16-.05.32-.08.48h-1.56c-.1,0-.2.06-.25.15-.4.76-.61,1.63-.61,2.51,0,.34.03.67.09.99-.57.28-1.25.41-2.05.41ZM17.25,17.4h7.62c-.1,2.3-1.77,4.14-3.81,4.14s-3.71-1.84-3.81-4.14Z"/>
</svg>