<?xml version="1.0" encoding="UTF-8"?>
<svg id="Capa_1" data-name="Capa 1" xmlns="http://www.w3.org/2000/svg" viewBox="0 0 35 35">
  <defs>
    <style>
      .cls-1 {
        fill: #fcf8ed;
      }
    </style>
  </defs>
  <circle class="cls-1" cx="17.63" cy="17.01" r="14.23"/>
  <g id="A51_Cup_Green_Tea_Wellness" data-name="A51 ,Cup ,Green ,Tea ,Wellness">
    <g>
      <path d="M25.2,13.01h-2.19v-.72c0-.2-.18-.38-.38-.38h-7.98c.15-.43.56-.72,1.02-.72h5.67c.5,0,.91-.4.91-.9s-.41-.9-.91-.9h-6.76c-.41,0-.73-.32-.73-.72,0-.2-.18-.38-.38-.38s-.38.17-.38.38c0,.81.64,1.45,1.46,1.45h6.76c.09,0,.18.09.18.17s-.03.17-.15.17h-5.64c-.88,0-1.61.64-1.78,1.45h-2.22c-.2,0-.38.17-.38.38v6.16c0,2.17,1.23,4.08,3.01,5.06h-3.74c-.2,0-.38.17-.38.38,0,.4.15.78.38,1.1h-.73c-.2,0-.38.17-.38.38s.18.38.38.38h14.97c.2,0,.38-.17.38-.38s-.18-.43-.38-.43h-.73c.23-.29.38-.66.38-1.1,0-.2-.18-.38-.38-.38h-4.12c1.64-.9,2.81-2.54,2.98-4.48l2.43-1.62c.09-.06.18-.17.18-.29v-3.7c0-.2-.18-.35-.35-.35ZM23.65,24.19c-.15.43-.56.72-1.02.72h-10.59c-.47,0-.88-.29-1.02-.72h12.63ZM17.16,23.47c-2.81,0-5.12-2.28-5.12-5.06v-2.89h4.39c.2,0,.38-.17.38-.38s-.18-.38-.38-.38h-4.39v-.72h7.66c.2,0,.38-.17.38-.38s-.18-.38-.38-.38h-7.66v-.72h10.24v5.84c0,2.78-2.31,5.06-5.12,5.06ZM24.82,16.88l-1.84,1.21v-4.37h1.84v3.15Z"/>
      <path d="M20.81,13.35h0c-.23,0-.38.17-.38.38s.18.38.38.38h.03c.2,0,.38-.17.38-.38-.06-.2-.2-.38-.41-.38Z"/>
      <path d="M17.51,15.52h0c.23,0,.38-.17.38-.38s-.18-.38-.38-.38h-.03c-.2,0-.38.17-.38.38.03.2.2.38.41.38Z"/>
      <path d="M20.46,17.08h-.29c-.96,0-1.96.43-2.69,1.16-.12.12-.26.26-.35.4-.09-.12-.2-.23-.32-.35-.73-.72-1.73-1.16-2.69-1.16h-.29c-.18.03-.32.14-.32.32-.09,1.04.35,2.14,1.14,2.95.56.55,1.23.93,1.99,1.07h.32c.97,0,1.96-.43,2.69-1.16.82-.81,1.26-1.91,1.17-2.95-.03-.12-.18-.26-.35-.29ZM14.2,17.86c.76.03,1.49.38,2.08.95.15.14.29.32.41.49-.06.12-.09.2-.15.32l-.88-.58c-.18-.12-.38-.06-.5.09-.12.17-.06.38.09.49l1.08.72c0,.09-.03.17-.03.26h0v.06c-.44-.17-.82-.43-1.17-.75-.58-.58-.91-1.33-.94-2.05ZM19.12,19.86c-.41.4-.94.72-1.46.84l1.17-1.16c.15-.14.15-.38,0-.52s-.38-.14-.53,0l-1.17,1.16s0-.06.03-.09h0c.15-.49.44-.98.85-1.36.58-.58,1.35-.93,2.08-.95-.03.75-.38,1.5-.96,2.08Z"/>
    </g>
  </g>
</svg>