<?xml version="1.0" encoding="UTF-8"?>
<svg id="Capa_1" data-name="Capa 1" xmlns="http://www.w3.org/2000/svg" viewBox="0 0 35 35">
  <defs>
    <style>
      .cls-1 {
        fill: #fcf8ed;
      }

      .cls-2 {
        fill: #1c1c1c;
      }
    </style>
  </defs>
  <circle class="cls-1" cx="17.16" cy="17.1" r="14.23"/>
  <g>
    <path class="cls-2" d="M20.89,17.98c-1.09-.73-2.58-1.39-4.43-1.39s-3.34.66-4.43,1.39c-.51.34-.58,1.06-.15,1.49h0c.33.33.85.38,1.24.12.88-.61,2-1.09,3.33-1.09s2.45.48,3.33,1.09c.39.27.91.22,1.24-.12h0c.43-.43.36-1.15-.15-1.49Z"/>
    <path class="cls-2" d="M22.99,16.04c-1.23-.99-3.46-2.31-6.53-2.31s-5.29,1.32-6.53,2.31c-.43.35-.47.99-.08,1.38h0c.33.33.85.37,1.22.08,1.21-.92,3.03-1.87,5.39-1.87s4.17.95,5.39,1.87c.37.28.89.25,1.22-.08h0c.39-.39.35-1.04-.08-1.38Z"/>
    <path class="cls-2" d="M25.04,14.09c-1.26-1.1-4.21-3.17-8.57-3.17s-7.31,2.07-8.57,3.17c-.39.34-.41.94-.05,1.31h0c.33.34.86.36,1.22.06,1.28-1.06,3.81-2.68,7.39-2.68s6.12,1.62,7.39,2.68c.36.3.89.28,1.22-.06h0c.37-.38.35-.98-.05-1.32Z"/>
    <path class="cls-2" d="M18.72,20.04c-.65-.35-1.4-.6-2.26-.6s-1.61.24-2.26.6c-.57.31-.68,1.08-.22,1.54h0c.3.3.76.38,1.13.18.41-.21.86-.35,1.35-.35s.94.13,1.35.35c.37.2.83.12,1.13-.18h0c.46-.46.34-1.23-.22-1.54Z"/>
    <circle class="cls-2" cx="16.47" cy="23.43" r="1.08"/>
  </g>
</svg>