<?xml version="1.0" encoding="UTF-8"?>
<svg id="Capa_1" data-name="Capa 1" xmlns="http://www.w3.org/2000/svg" viewBox="0 0 35 35">
  <defs>
    <style>
      .cls-1 {
        fill: #fcf8ed;
      }
    </style>
  </defs>
  <circle class="cls-1" cx="17.53" cy="17.28" r="14.23"/>
  <g>
    <path d="M13.76,13.37h2.38c.18,0,.32-.14.32-.32v-2.38c0-.18-.14-.32-.32-.32h-2.38c-.18,0-.32.14-.32.32v2.38c0,.18.14.32.32.32ZM14.08,10.99h1.74v1.74h-1.74v-1.74Z"/>
    <path d="M17.92,13.37h2.38c.18,0,.32-.14.32-.32v-2.38c0-.18-.14-.32-.32-.32h-2.38c-.18,0-.32.14-.32.32v2.38c0,.18.14.32.32.32ZM18.24,10.99h1.74v1.74h-1.74v-1.74Z"/>
    <path d="M16.14,17.61c.18,0,.32-.14.32-.32v-2.38c0-.18-.14-.32-.32-.32h-2.38c-.18,0-.32.14-.32.32v2.38c0,.18.14.32.32.32h2.38ZM14.08,15.24h1.74v1.74h-1.74v-1.74Z"/>
    <path d="M17.92,17.61h2.38c.18,0,.32-.14.32-.32v-2.38c0-.18-.14-.32-.32-.32h-2.38c-.18,0-.32.14-.32.32v2.38c0,.18.14.32.32.32ZM18.24,15.24h1.74v1.74h-1.74v-1.74Z"/>
    <path d="M25.66,11.88h-3.48v-3.39c0-.18-.14-.32-.32-.32h-9.68c-.18,0-.32.14-.32.32v3.39h-3.48c-.18,0-.32.14-.32.32v12.68c0,.18.14.32.32.32h17.27c.18,0,.32-.14.32-.32v-12.68c0-.18-.14-.32-.32-.32ZM8.71,14.73h1.74v1.74h-1.74v-1.74ZM8.71,18.97h1.74v1.74h-1.74v-1.74ZM11.87,24.56h-3.16v-3.21h2.06c.18,0,.32-.14.32-.32v-2.38c0-.18-.14-.32-.32-.32h-2.06v-1.23h2.06c.18,0,.32-.14.32-.32v-2.38c0-.18-.14-.32-.32-.32h-2.06v-1.57h3.16v12.04ZM18.36,24.56h-2.66v-4.63h2.66v4.63ZM21.55,12.2v12.36h-2.56v-4.95c0-.18-.14-.32-.32-.32h-3.29c-.18,0-.32.14-.32.32v4.95h-2.56v-15.75h9.04v3.39ZM25.35,20.72h-1.74v-1.74h1.74v1.74ZM25.35,16.47h-1.74v-1.74h1.74v1.74ZM25.35,14.09h-2.06c-.18,0-.32.14-.32.32v2.38c0,.18.14.32.32.32h2.06v1.23h-2.06c-.18,0-.32.14-.32.32v2.38c0,.18.14.32.32.32h2.06v3.21h-3.16v-12.04h3.16v1.57Z"/>
  </g>
</svg>