<?xml version="1.0" encoding="UTF-8"?>
<svg id="Capa_1" data-name="Capa 1" xmlns="http://www.w3.org/2000/svg" xmlns:xlink="http://www.w3.org/1999/xlink" viewBox="0 0 65 65">
  <defs>
    <style>
      .cls-1 {
        fill: #f9f9f9;
        filter: url(#drop-shadow-14);
      }

      .cls-2 {
        fill: #141414;
      }
    </style>
    <filter id="drop-shadow-14" x=".56" y="4.69" width="64" height="64" filterUnits="userSpaceOnUse">
      <feOffset dx="0" dy="3"/>
      <feGaussianBlur result="blur" stdDeviation="4"/>
      <feFlood flood-color="#000" flood-opacity=".46"/>
      <feComposite in2="blur" operator="in"/>
      <feComposite in="SourceGraphic"/>
    </filter>
  </defs>
  <circle class="cls-1" cx="32.71" cy="33.51" r="19.81"/>
  <path class="cls-2" d="M21.37,32.94l10.77-10.77c.31-.31.82-.31,1.13,0,.31.31.31.82,0,1.13l-9.41,9.41h19.61c.44,0,.8.36.8.8s-.36.8-.8.8h-19.61s9.41,9.41,9.41,9.41c.31.31.31.82,0,1.13-.16.16-.36.23-.56.23s-.41-.08-.56-.23l-10.77-10.77c-.31-.31-.31-.82,0-1.13Z"/>
</svg>