<?xml version="1.0" encoding="UTF-8"?>
<svg id="Capa_1" data-name="Capa 1" xmlns="http://www.w3.org/2000/svg" viewBox="0 0 35 35">
  <defs>
    <style>
      .cls-1 {
        fill: #fcf8ed;
      }
    </style>
  </defs>
  <circle class="cls-1" cx="17.5" cy="18.27" r="14.23"/>
  <path d="M25.69,14.68c-.18,0-.32.14-.32.32v1.18h-11.71c.16-.19.25-.41.25-.64,0-.72-.85-1.28-1.93-1.28s-1.93.56-1.93,1.28c0,.24.09.46.25.64h-.69v-4.01c0-.18-.14-.32-.32-.32s-.32.14-.32.32v10.21c0,.18.14.32.32.32s.32-.14.32-.32v-2.95h15.75v2.95c0,.18.14.32.32.32s.32-.14.32-.32v-7.38c0-.18-.14-.32-.32-.32ZM10.7,15.53c0-.3.55-.64,1.29-.64s1.29.34,1.29.64-.55.64-1.29.64-1.29-.34-1.29-.64ZM9.62,18.78v-1.97h15.75v1.97h-15.75Z"/>
</svg>