<?xml version="1.0" encoding="UTF-8"?>
<svg id="Capa_1" data-name="Capa 1" xmlns="http://www.w3.org/2000/svg" viewBox="0 0 35 35">
  <defs>
    <style>
      .cls-1 {
        fill: #fcf8ed;
      }
    </style>
  </defs>
  <circle class="cls-1" cx="17.5" cy="17.43" r="14.23"/>
  <g id="A65_Book_Bowl_Learn_Mixture_Spa_School" data-name="A65 ,Book ,Bowl ,Learn ,Mixture ,Spa School">
    <g>
      <path d="M27.1,10.26c-.1-.06-.23-.1-.36-.06l-3.17.81v-2.03c0-.32-.39-.52-.65-.32l-2.22,1.55v-1.65c0-.39-.52-.55-.75-.23l-2.51,3.9-2.51-3.9c-.23-.32-.75-.16-.75.23v1.65l-2.22-1.55c-.26-.19-.65,0-.65.32v2.03l-3.1-.84c-.26-.06-.52.13-.52.39v13.33c0,.19.13.35.29.39l9.4,2.42c.07.03.13.03.2,0l9.4-2.42c.2-.03.29-.19.29-.39v-13.33c0-.1-.07-.23-.16-.29-.1-.1.1.06,0,0ZM22.79,11.19l-2.87.74-.42.1,1.04-.74h0l2.22-1.55v1.45h.03ZM19.91,10.74l-.98.71.98-1.52v.81ZM15.02,9.94l.98,1.52-.98-.68v-.84ZM12.18,9.74l2.61,1.84.65.45-3.26-.84v-1.45ZM8.49,11.1l3.17.81h0l5.42,1.39v12.49l-8.59-2.23v-12.46ZM17.89,25.78v-12.49l5.42-1.39h0l3.17-.81v10.46l-5.84,1.52c-.52.13-.29.9.2.77l5.61-1.45v1.19l-8.55,2.19Z"/>
      <path d="M15.87,17.03c-.36-.61-1.18-.71-1.8-.48-.1-.65-.62-1.29-1.31-1.29s-1.21.65-1.31,1.29c-.59-.23-1.37-.13-1.73.42-.42.61-.1,1.39.42,1.84-.49.39-.78,1.1-.49,1.71.33.68,1.18.81,1.83.55.1.65.62,1.29,1.31,1.29s1.21-.65,1.31-1.29c.59.23,1.31.16,1.7-.35.49-.61.16-1.45-.36-1.9.55-.48.75-1.23.42-1.77-.2-.39.33.55,0,0ZM14.72,17.23c.33,0,.59.23.46.55-.13.35-.49.58-.85.61-.29-.03-.55,0-.85,0h0c.16-.23.29-.48.42-.74.2-.23.49-.42.82-.42ZM12.76,16.07c.55,0,.59.84.42,1.19-.16.23-.29.48-.42.74h0c-.13-.26-.26-.48-.42-.74-.16-.35-.13-1.19.42-1.19ZM10.38,17.42c.29-.48,1.04-.1,1.27.23.13.26.26.48.42.74h0c-.29,0-.55-.03-.85,0-.39-.03-1.14-.48-.85-.97.07-.1-.1.16,0,0ZM10.81,20.36c-.33,0-.59-.23-.46-.55.13-.35.49-.58.85-.61.29.03.55,0,.85,0h0c-.16.23-.29.48-.42.74-.2.26-.46.42-.82.42ZM12.76,21.55c-.56,0-.59-.84-.42-1.19.16-.23.29-.48.42-.74h0c.13.26.26.48.42.74.16.35.13,1.19-.42,1.19ZM15.18,20.16c-.29.48-1.04.1-1.27-.23-.13-.26-.26-.48-.42-.74h0c.29,0,.55.03.85,0,.39.06,1.11.52.85.97Z"/>
    </g>
  </g>
</svg>