<?xml version="1.0" encoding="UTF-8"?>
<svg id="Capa_1" data-name="Capa 1" xmlns="http://www.w3.org/2000/svg" viewBox="0 0 35 35">
  <defs>
    <style>
      .cls-1 {
        fill: #fcf8ed;
      }

      .cls-2 {
        fill: #1c1c1c;
      }
    </style>
  </defs>
  <circle class="cls-1" cx="17.63" cy="17.55" r="14.23"/>
  <path class="cls-2" d="M25.99,16.39l-8.27-7.05c-.27-.25-.42-.6-.42-.97,0-.73.59-1.33,1.33-1.33s1.33.59,1.33,1.33c0,.22.17.39.39.39s.39-.17.39-.39c0-1.16-.94-2.11-2.11-2.11s-2.11.94-2.11,2.11c0,.45.15.89.41,1.25l-8.09,6.76c-.13.11-.17.28-.12.43.06.15.2.26.37.26h3.07v10.55c0,.22.17.39.39.39h9.72c.22,0,.39-.17.39-.39v-10.55h3.07c.16,0,.31-.1.37-.26.06-.15.01-.33-.11-.43ZM21.89,27.24h-8.94v-11.15h8.94v11.15ZM22.67,16.3v-.6c0-.22-.17-.39-.39-.39h-9.72c-.22,0-.39.17-.39.39v.6h-2l7.33-6.12,7.19,6.12h-2.01Z"/>
</svg>