<?xml version="1.0" encoding="UTF-8"?>
<svg id="Capa_1" data-name="Capa 1" xmlns="http://www.w3.org/2000/svg" viewBox="0 0 35 35">
  <defs>
    <style>
      .cls-1 {
        fill: #fcf8ed;
      }

      .cls-2 {
        fill: #1c1c1c;
      }
    </style>
  </defs>
  <circle class="cls-1" cx="17.19" cy="18.04" r="14.23"/>
  <g id="_728_Sun_Sunny_Weather" data-name="728, Sun, Sunny, Weather">
    <g>
      <path class="cls-2" d="M16.92,21.59c-1.79,0-3.22-1.42-3.22-3.19s1.43-3.19,3.22-3.19,3.22,1.42,3.22,3.19-1.43,3.19-3.22,3.19ZM16.92,16.19c-1.23,0-2.23.99-2.23,2.21s1,2.21,2.23,2.21,2.23-.99,2.23-2.21-1-2.21-2.23-2.21Z"/>
      <path class="cls-2" d="M16.92,12.37c-.28,0-.52-.24-.52-.51v-4.1c0-.28.24-.51.52-.51s.52.24.52.51v4.14c0,.28-.24.47-.52.47Z"/>
      <path class="cls-2" d="M21.58,14.3c-.12,0-.24-.04-.36-.16-.2-.2-.2-.51,0-.71l2.95-2.92c.2-.2.52-.2.72,0s.2.51,0,.71l-2.95,2.92c-.12.08-.24.16-.36.16Z"/>
      <path class="cls-2" d="M27.67,18.91h-4.18c-.28,0-.52-.24-.52-.51s.24-.51.52-.51h4.18c.28,0,.52.24.52.51s-.24.51-.52.51Z"/>
      <path class="cls-2" d="M24.53,26.44c-.12,0-.24-.04-.36-.16l-2.95-2.92c-.2-.2-.2-.51,0-.71s.52-.2.72,0l2.95,2.92c.2.2.2.51,0,.71-.08.08-.24.16-.36.16Z"/>
      <path class="cls-2" d="M16.92,29.55c-.28,0-.52-.24-.52-.51v-4.14c0-.28.24-.51.52-.51s.52.24.52.51v4.14c0,.28-.24.51-.52.51Z"/>
      <path class="cls-2" d="M9.32,26.44c-.12,0-.24-.04-.36-.16-.2-.2-.2-.51,0-.71l2.95-2.92c.2-.2.52-.2.72,0,.2.2.2.51,0,.71l-2.95,2.92c-.12.08-.24.16-.36.16Z"/>
      <path class="cls-2" d="M10.35,18.91h-4.18c-.28,0-.52-.24-.52-.51s.24-.51.52-.51h4.18c.28,0,.52.24.52.51s-.24.51-.52.51Z"/>
      <path class="cls-2" d="M12.26,14.3c-.12,0-.24-.04-.36-.16l-2.95-2.92c-.2-.2-.2-.51,0-.71.2-.2.52-.2.72,0l2.95,2.92c.2.2.2.51,0,.71-.12.08-.24.16-.36.16Z"/>
      <path class="cls-2" d="M18.63,12.6h-.12c-.28-.08-.44-.35-.36-.59l.52-2.01c.08-.28.36-.43.6-.35.28.08.44.35.36.59l-.52,2.01c-.08.2-.28.35-.48.35Z"/>
      <path class="cls-2" d="M20.23,13.27c-.08,0-.16-.04-.24-.08-.24-.12-.32-.43-.2-.67l1.04-1.81c.12-.24.44-.32.68-.2.24.12.32.43.2.67l-1.04,1.81c-.12.16-.28.28-.44.28Z"/>
      <path class="cls-2" d="M22.61,15.64c-.16,0-.36-.08-.44-.24-.12-.24-.04-.55.2-.67l1.83-1.02c.24-.12.56-.04.68.2.12.24.04.55-.2.67l-1.83,1.02c-.08,0-.16.04-.24.04Z"/>
      <path class="cls-2" d="M23.29,17.21c-.24,0-.44-.16-.48-.35-.08-.28.08-.55.36-.59l2.03-.51c.28-.08.56.08.6.35.08.28-.08.55-.36.59l-2.03.51h-.12Z"/>
      <path class="cls-2" d="M25.28,21.12h-.12l-2.03-.51c-.28-.08-.44-.35-.36-.59.08-.28.36-.43.6-.35l2.03.51c.28.08.44.35.36.59-.04.2-.24.35-.48.35Z"/>
      <path class="cls-2" d="M24.45,23.21c-.08,0-.16-.04-.24-.08l-1.83-1.02c-.24-.12-.32-.43-.2-.67.12-.24.44-.32.68-.2l1.83,1.02c.24.12.32.43.2.67-.12.16-.28.28-.44.28Z"/>
      <path class="cls-2" d="M21.26,26.32c-.16,0-.36-.08-.44-.24l-1.04-1.81c-.12-.24-.04-.55.2-.67.24-.12.56-.04.68.2l1.04,1.81c.12.24.04.55-.2.67-.08.04-.16.04-.24.04Z"/>
      <path class="cls-2" d="M19.15,27.19c-.24,0-.44-.16-.48-.35l-.52-2.01c-.08-.28.08-.55.36-.59.28-.08.56.08.6.35l.52,2.01c.08.28-.08.55-.36.59h-.12Z"/>
      <path class="cls-2" d="M14.69,27.19h-.12c-.28-.08-.44-.35-.36-.59l.52-2.01c.08-.28.36-.43.6-.35.28.08.44.35.36.59l-.52,2.01c-.08.2-.28.35-.48.35Z"/>
      <path class="cls-2" d="M12.58,26.32c-.08,0-.16-.04-.24-.08-.24-.12-.32-.43-.2-.67l1.04-1.81c.12-.24.44-.32.68-.2.24.12.32.43.2.67l-1.04,1.81c-.08.2-.28.28-.44.28Z"/>
      <path class="cls-2" d="M9.4,23.21c-.16,0-.36-.08-.44-.24-.12-.24-.04-.55.2-.67l1.83-1.02c.24-.12.56-.04.68.2.12.24.04.55-.2.67l-1.79.99c-.08.04-.16.08-.28.08Z"/>
      <path class="cls-2" d="M8.56,21.12c-.24,0-.44-.16-.48-.35-.08-.28.08-.55.36-.59l2.03-.51c.28-.08.56.08.6.35.08.28-.08.55-.36.59l-2.03.51h-.12Z"/>
      <path class="cls-2" d="M10.55,17.21h-.12l-2.03-.51c-.28-.08-.44-.35-.36-.59.08-.28.36-.43.6-.35l2.03.51c.28.08.44.35.36.59-.04.2-.24.35-.48.35Z"/>
      <path class="cls-2" d="M11.23,15.64c-.08,0-.16-.04-.24-.08l-1.83-1.02c-.24-.12-.32-.43-.2-.67.12-.24.44-.32.68-.2l1.83,1.02c.24.12.32.43.2.67-.08.2-.28.28-.44.28Z"/>
      <path class="cls-2" d="M13.62,13.27c-.16,0-.36-.08-.44-.24l-1.04-1.81c-.12-.24-.04-.55.2-.67.24-.12.56-.04.68.2l1.04,1.81c.12.24.04.55-.2.67-.04,0-.16.04-.24.04Z"/>
      <path class="cls-2" d="M15.21,12.6c-.24,0-.44-.16-.48-.35l-.52-2.01c-.08-.28.08-.55.36-.59.28-.08.56.08.6.35l.52,2.01c.08.28-.08.55-.36.59h-.12Z"/>
    </g>
  </g>
</svg>