<?xml version="1.0" encoding="UTF-8"?>
<svg id="Capa_1" data-name="Capa 1" xmlns="http://www.w3.org/2000/svg" viewBox="0 0 35 35">
  <defs>
    <style>
      .cls-1 {
        fill: #fcf8ed;
      }

      .cls-2 {
        fill: #1c1c1c;
      }
    </style>
  </defs>
  <circle class="cls-1" cx="17.19" cy="17.82" r="14.23"/>
  <path class="cls-2" d="M24.28,22.33c-.03-.18-.18-.27-.37-.27h-3.72c2.38-4.7,1.13-10.51-3.2-13.85-.06-.06-.15-.09-.24-.09h0c-.09,0-.18.03-.24.09h0c-4.32,3.31-5.57,9.12-3.2,13.85h-3.38c-.27,0-.46.27-.37.54l1.16,2.68c.06.15.21.24.37.24h8.16c.21,0,0,.06,4.87-2.74.12-.09.21-.27.15-.45ZM16.36,9.32v9.27h-1.4c-.21,0-.4.18-.4.39s.18.39.4.39h4.26c.21,0,.4-.18.4-.39v-1.54c0-.21-.18-.39-.4-.39s-.37.18-.37.39v1.14h-1.71v-9.24c3.75,3.31,4.45,8.61,2.19,12.7h-5.15c-2.25-4.09-1.55-9.39,2.16-12.73ZM19.16,24.74h-7.83l-.33-.78h4.35c.21,0,.4-.18.4-.39s-.18-.39-.4-.39h-4.69l-.18-.39h11.97l-3.29,1.96Z"/>
</svg>