<?xml version="1.0" encoding="UTF-8"?>
<svg id="Capa_1" data-name="Capa 1" xmlns="http://www.w3.org/2000/svg" viewBox="0 0 35 35">
  <defs>
    <style>
      .cls-1 {
        fill: #fcf8ed;
      }
    </style>
  </defs>
  <circle class="cls-1" cx="17.19" cy="18.9" r="14.23"/>
  <g>
    <g>
      <path d="M22.67,26.24c-3.01,0-5.46-2.45-5.46-5.46s2.45-5.46,5.46-5.46,5.46,2.45,5.46,5.46-2.45,5.46-5.46,5.46ZM22.67,16c-2.64,0-4.79,2.15-4.79,4.79s2.15,4.79,4.79,4.79,4.79-2.15,4.79-4.79-2.15-4.79-4.79-4.79Z"/>
      <path d="M10.99,26.24c-3.01,0-5.46-2.45-5.46-5.46s2.45-5.46,5.46-5.46,5.46,2.45,5.46,5.46-2.45,5.46-5.46,5.46ZM10.99,16c-2.64,0-4.79,2.15-4.79,4.79s2.15,4.79,4.79,4.79,4.79-2.15,4.79-4.79-2.15-4.79-4.79-4.79Z"/>
      <path d="M22.67,21.12c-.12,0-.23-.06-.29-.17l-5.91-10.24c-.06-.1-.06-.23,0-.34.06-.1.17-.17.29-.17h5.91c.19,0,.34.15.34.34s-.15.34-.34.34h-5.33l5.62,9.74c.09.16.04.37-.12.46-.05.03-.11.04-.17.04Z"/>
    </g>
    <path d="M10.99,21.12s-.09,0-.13-.03c-.13-.05-.21-.17-.21-.31v-7.4c0-.19.15-.34.34-.34s.34.15.34.34v6.59l6.83-6.83c.13-.13.34-.13.47,0,.13.13.13.34,0,.47l-7.4,7.4c-.06.06-.15.1-.24.1Z"/>
  </g>
</svg>