<?xml version="1.0" encoding="UTF-8"?>
<svg id="Capa_1" data-name="Capa 1" xmlns="http://www.w3.org/2000/svg" viewBox="0 0 35 35">
  <defs>
    <style>
      .cls-1 {
        fill: #fcf8ed;
      }

      .cls-2 {
        fill: #1c1c1c;
      }
    </style>
  </defs>
  <circle class="cls-1" cx="17.19" cy="17.87" r="14.23"/>
  <g id="_96_Beverage_Drink_Glass_Ice_Straw" data-name="96, Beverage, Drink, Glass, Ice, Straw">
    <path class="cls-2" d="M24.85,12.43c.03-.7-.25-1.4-.79-1.94-1.04-1.02-2.73-1.02-3.76,0-.14.13-.14.35,0,.48.14.13.35.13.49,0,1.17-1.16,3.16-.46,3.32,1.16h-.68c-.19,0-.35.16-.35.35s.16.35.35.35h.63c-.35,1.37-2.02,1.94-3.13,1.05l1.25-1.78c.16-.22,0-.54-.3-.54h-11.77c-.27,0-.44.32-.27.54l5.86,8.3v3.53h-1.94c-.71,0-1.23.7-.98,1.37h-2.89c-.19,0-.35.16-.35.35s.16.35.35.35h8.34c.57,0,1.04-.46,1.04-1.02s-.46-1.02-1.04-1.02h-1.88v-3.58l4.2-5.95c1.64,1.27,4.12.22,4.28-1.89.03-.03.03-.08.03-.11ZM18.58,24.93c0,.19-.16.35-.35.35h-4.5c-.19,0-.35-.16-.35-.35s.16-.35.35-.35h4.52c.16.03.33.16.33.35ZM21.25,12.22l-5.23,7.46-3.38-4.8h3.87c.19,0,.35-.16.35-.35s-.16-.35-.35-.35h-4.36l-.25-.35h2.86c.19,0,.35-.16.35-.35s-.16-.35-.35-.35h-3.35l-.65-.94h10.49v.03Z"/>
  </g>
</svg>