<?xml version="1.0" encoding="UTF-8"?>
<svg id="Capa_1" data-name="Capa 1" xmlns="http://www.w3.org/2000/svg" viewBox="0 0 320 60">
  <defs>
    <style>
      .cls-1 {
        fill: #d6ff57;
      }

      .cls-2 {
        fill: #141414;
      }
    </style>
  </defs>
  <rect class="cls-1" x="9.5" y="9.01" width="300.49" height="41.69" rx="20.84" ry="20.84"/>
  <g>
    <path class="cls-2" d="M42.55,35.39l-.99-1.65c-.66-.92-1.63-1.36-2.66-1.36h-3.37v5.24h-5.74v-15.75h13.25c4.22,0,6.65,1.83,6.65,4.99,0,2.35-1.67,4-4.55,4.55v.02c.53.2,1.01.62,1.39,1.19l1.12,1.69c.29.4.66.66,1.28.66.37,0,.9-.2,1.17-.51l.97,2.31c-.86.75-2.57,1.28-4.03,1.28-2.38,0-3.57-1.36-4.47-2.66ZM41.32,29.14c1.65,0,2.62-.73,2.62-1.94s-.97-1.96-2.62-1.96h-5.79v3.89h5.79Z"/>
    <path class="cls-2" d="M52.14,21.86h16.61v3.56h-11.05v2.64h10.17v3.06h-10.17v2.93h11.27v3.56h-16.83v-15.75Z"/>
    <path class="cls-2" d="M69.85,35.33l1.98-3.41c1.83,1.45,5.24,2.51,8.25,2.51,2.22,0,3.63-.53,3.63-1.34,0-.68-1.01-1.1-3.41-1.36l-2.9-.33c-4.97-.53-7.11-1.91-7.11-4.71,0-3.39,3.83-5.3,9.44-5.3,3.32,0,6.45.79,8.38,2.05l-1.61,3.3c-1.72-1.14-4.31-1.87-6.73-1.85-2.24.02-3.89.55-3.92,1.39,0,.59.88.97,2.9,1.17l2.93.31c5.33.55,7.61,2,7.61,4.86.02,3.26-3.72,5.48-9.5,5.48-3.79,0-7.83-1.12-9.95-2.75Z"/>
    <path class="cls-2" d="M90.84,21.86h16.61v3.56h-11.05v2.64h10.17v3.06h-10.17v2.93h11.27v3.56h-16.83v-15.75Z"/>
    <path class="cls-2" d="M121.97,35.39l-.99-1.65c-.66-.92-1.63-1.36-2.66-1.36h-3.37v5.24h-5.74v-15.75h13.25c4.22,0,6.65,1.83,6.65,4.99,0,2.35-1.67,4-4.55,4.55v.02c.53.2,1.01.62,1.39,1.19l1.12,1.69c.29.4.66.66,1.28.66.37,0,.9-.2,1.17-.51l.97,2.31c-.86.75-2.57,1.28-4.03,1.28-2.38,0-3.57-1.36-4.47-2.66ZM120.74,29.14c1.65,0,2.62-.73,2.62-1.94s-.97-1.96-2.62-1.96h-5.79v3.89h5.79Z"/>
    <path class="cls-2" d="M129.29,21.86h5.94l5.06,10.91h.04l5.04-10.91h5.96l-7.81,15.75h-6.45l-7.79-15.75Z"/>
    <path class="cls-2" d="M155.72,21.86h6.67l7.68,15.75h-5.96l-1.23-2.75h-7.86l-1.21,2.75h-5.94l7.85-15.75ZM161.77,31.63l-2.77-6.23h-.04l-2.82,6.23h5.63Z"/>
    <path class="cls-2" d="M183.04,21.86h6.67l7.68,15.75h-5.96l-1.23-2.75h-7.86l-1.21,2.75h-5.94l7.85-15.75ZM189.09,31.63l-2.77-6.23h-.04l-2.82,6.23h5.63Z"/>
    <path class="cls-2" d="M198.51,21.86h5.74v5.59h8.69v-5.59h5.74v15.75h-5.74v-6.27h-8.69v6.27h-5.74v-15.75Z"/>
    <path class="cls-2" d="M220.51,29.74c0-5.06,4.62-8.43,11.53-8.43s11.55,3.37,11.55,8.43-4.62,8.43-11.55,8.43-11.53-3.37-11.53-8.43ZM237.84,29.74c0-2.62-2.35-4.38-5.81-4.38s-5.79,1.76-5.79,4.38,2.33,4.38,5.79,4.38,5.81-1.76,5.81-4.38Z"/>
    <path class="cls-2" d="M258.15,35.39l-.99-1.65c-.66-.92-1.63-1.36-2.66-1.36h-3.37v5.24h-5.74v-15.75h13.25c4.22,0,6.65,1.83,6.65,4.99,0,2.35-1.67,4-4.55,4.55v.02c.53.2,1.01.62,1.39,1.19l1.12,1.69c.29.4.66.66,1.28.66.37,0,.9-.2,1.17-.51l.97,2.31c-.86.75-2.57,1.28-4.03,1.28-2.38,0-3.57-1.36-4.47-2.66ZM256.92,29.14c1.65,0,2.62-.73,2.62-1.94s-.97-1.96-2.62-1.96h-5.79v3.89h5.79Z"/>
    <path class="cls-2" d="M274.63,21.86h6.67l7.68,15.75h-5.96l-1.23-2.75h-7.86l-1.21,2.75h-5.94l7.85-15.75ZM280.68,31.63l-2.77-6.23h-.04l-2.82,6.23h5.63Z"/>
  </g>
</svg>