<?xml version="1.0" encoding="UTF-8"?>
<svg id="Capa_1" data-name="Capa 1" xmlns="http://www.w3.org/2000/svg" viewBox="0 0 35 35">
  <defs>
    <style>
      .cls-1 {
        fill: #fcf8ed;
      }

      .cls-2 {
        fill: #1c1c1c;
      }
    </style>
  </defs>
  <circle class="cls-1" cx="17.19" cy="17.87" r="14.23"/>
  <g>
    <path class="cls-2" d="M24.48,13.51c.34-1.06-.33-2.49-1.66-3.44-1.69-1.21-4.38-1.59-7.17.64l-1.57-1.57c-.14-.14-.36-.14-.49,0l-8.03,8.03c-.07.07-.1.15-.1.25s.04.18.1.25l3.41,3.41c.07.07.15.1.25.1s.18-.04.25-.1l8.03-8.03c.14-.14.14-.36,0-.49l-1.35-1.35c2.47-1.93,4.81-1.62,6.27-.57.91.66,1.48,1.59,1.46,2.32-.7-.52-1.54-.81-2.43-.81-1.09,0-2.11.42-2.87,1.19-.63.63-1.03,1.43-1.15,2.3-.11.76,0,1.55.32,2.25l-6.06,6.06c-.07.07-.1.15-.1.25v2.15c0,.19.16.35.35.35h2.15c.09,0,.18-.04.25-.1l6.38-6.38c.24.05.49.07.74.07h0c1.09,0,2.11-.42,2.87-1.19.77-.77,1.19-1.79,1.19-2.87,0-1.01-.37-1.96-1.03-2.71ZM16.76,12.8l-7.54,7.54-2.92-2.92,7.54-7.54,1.29,1.29c-.11.11-.23.21-.34.33-.14.14-.14.36,0,.49.14.14.36.14.49,0,.11-.11.23-.22.34-.33l1.14,1.14ZM23.83,18.6c-.64.64-1.48.99-2.38.99-.26,0-.52-.03-.78-.09-.12-.03-.24,0-.32.09l-6.41,6.41h-1.66v-1.66l1.32-1.32.41.41c.07.07.16.1.25.1s.18-.03.25-.1c.14-.14.14-.36,0-.49l-.41-.41.88-.88.66.66c.07.07.16.1.25.1s.18-.03.25-.1c.14-.14.14-.36,0-.49l-.66-.66.82-.82.41.41c.07.07.16.1.25.1s.18-.03.25-.1c.14-.14.14-.36,0-.49l-.41-.41,1.64-1.64c.11-.11.13-.27.06-.41-.7-1.32-.47-2.91.59-3.97.64-.64,1.48-.99,2.38-.99s1.75.35,2.38.99c.64.64.99,1.48.99,2.38,0,.9-.35,1.75-.99,2.38Z"/>
    <path class="cls-2" d="M22,14.12c-.2-.2-.54-.2-.74,0-.2.2-.2.54,0,.74l1.55,1.55c.2.2.54.2.74,0,.2-.2.2-.54,0-.74l-1.55-1.55Z"/>
  </g>
</svg>