<?xml version="1.0" encoding="UTF-8"?>
<svg id="Capa_1" data-name="Capa 1" xmlns="http://www.w3.org/2000/svg" viewBox="0 0 40 30">
  <defs>
    <style>
      .cls-1 {
        fill: #faca0b;
        fill-rule: evenodd;
      }
    </style>
  </defs>
  <path class="cls-1" d="M16.91,8.41c-.12.03-.35,0-.48.01,1.82.01,4.81.17,6.6,0h-.46c-.19-.41-.47-1.75-.62-1.95l-.06-.08c-.12-.14-.41-.09-.61-.09-.92,0-1.89,0-2.81,0-.23,0-.47,0-.7,0-.32,0-.32.37-.39.5-.05.09.01,0-.05.14-.06.16-.09.35-.15.53-.01.04-.03.07-.03.11-.01.04-.24.82-.24.82h0Z"/>
  <path class="cls-1" d="M10.37,11.03c-.43-.03-1.09.16-1.29.46-.86,1.25,1.32,1.08,1.93,1.11-.4.34-1.91,1.92-2,2.3-.1.42-.1,3.78-.11,4.5-.01,1.04-.26,3.51.65,3.84.26.1,1.72.11,2.04.04.75-.17.59-.85.62-1.67,2.64-.18,12.4-.18,15.03,0,.03.76-.12,1.44.54,1.65.32.1,1.84.09,2.12-.02,1.13-.41.54-4.53.57-5.93.04-2.45-.04-3.15-2.03-4.71.65-.03,2.61.2,1.98-1.03-.19-.37-1.38-.84-1.83-.32-.89,1.05-.8-.08-1.61-1.25-.95-1.9-1.19-1.87-4.17-1.84-.98-.04-2.04-.08-3.03-.08-1.02,0-4.95.12-5.79.32-.83.02-1.92,2.16-2.3,2.92-.6,1.19-.49-.21-1.32-.27h0ZM11.68,12.39c2.51.04,5.36-.31,7.99-.31,2.72,0,5.43.29,8.1.31l-1.44-2.8c-.27-.43-.27-.6-.84-.69-2.1-.34-9.24-.3-11.41-.01-.8.11-.79.42-1.41,1.53-.38.67-.71,1.29-.98,1.98h0ZM15.62,18.07c0,.74.6,1.34,1.34,1.34h5.53c.74,0,1.34-.6,1.34-1.34v-.92c0-.74-.6-1.34-1.34-1.34h-5.53c-.74,0-1.34.6-1.34,1.34v.92ZM13.92,18.07c.31-.14.62-.5.73-.79-.83-.49-3.89-.7-4.84-.52-.42,2.5,3.24,1.72,4.1,1.31h0ZM24.8,17.28c.11.29.42.65.73.79.86.41,4.53,1.19,4.1-1.31-.94-.19-4.01.03-4.83.52h0Z"/>
</svg>