<?xml version="1.0" encoding="UTF-8"?>
<svg id="Capa_1" data-name="Capa 1" xmlns="http://www.w3.org/2000/svg" viewBox="0 0 35 35">
  <defs>
    <style>
      .cls-1 {
        fill: #fcf8ed;
      }
    </style>
  </defs>
  <circle class="cls-1" cx="17.19" cy="17.38" r="14.23"/>
  <g id="A60_Massage_Relax_Relaxation_Spa_Towels" data-name="A60 ,Massage ,Relax ,Relaxation ,Spa ,Towels">
    <g>
      <path d="M26.66,21.18h-3.3c1.52-1.14,2.08-3.2,1.29-4.93-.73-1.6-2.44-2.58-4.2-2.42.89-1.18,1.09-2.78.5-4.12-.53-1.14-1.59-2.03-2.84-2.32-2.71-.62-5.32,1.63-5.06,4.38.07.75.36,1.47.83,2.09-1.75-.2-3.47.82-4.2,2.42-.76,1.73-.23,3.79,1.29,4.93h-3.3c-.23,0-.43.2-.43.42v1.63c0,.23.2.42.43.42h.07c.63,0,1.16.52,1.16,1.14v.1c0,.23.2.42.43.42h3.3c.23,0,.43-.2.43-.42v-.1c0-.62.53-1.14,1.16-1.14h5.95c.63,0,1.16.52,1.16,1.14v.1c0,.23.2.42.43.42h3.3c.23,0,.43-.2.43-.42v-.1c0-.62.53-1.14,1.16-1.14h.1c.23,0,.43-.2.43-.42v-1.63c-.1-.26-.3-.46-.5-.46ZM24.18,17.91c0,1.31-.79,2.48-2.02,3-1.22.52-2.68.26-3.6-.65-.96-.91-1.26-2.35-.76-3.56.5-1.21,1.69-2.03,2.97-2.06,1.82-.03,3.4,1.47,3.4,3.27ZM18.4,21.18h-2.48c.53-.39.96-.91,1.26-1.5.26.59.69,1.11,1.22,1.5ZM17.14,16.15c-.13-.26-.26-.49-.43-.69.3.03.56.03.86,0-.17.2-.3.42-.43.69-.13-.26.13-.26,0,0ZM17.14,8.12c1.32,0,2.51.78,3.04,1.99.53,1.21.26,2.65-.66,3.56-.92.95-2.38,1.24-3.6.75-1.22-.49-2.05-1.67-2.08-2.94-.03-1.83,1.49-3.36,3.3-3.36ZM10.14,17.91c0-1.31.79-2.48,2.02-3,1.22-.52,2.68-.26,3.6.65.96.91,1.26,2.35.76,3.56-.5,1.21-1.69,2.03-2.97,2.06-1.85.03-3.4-1.47-3.4-3.27ZM26.23,22.85c-.83.13-1.49.78-1.62,1.6h-2.54c-.17-.91-.96-1.63-1.95-1.63h-5.95c-.99,0-1.78.72-1.95,1.63h-2.54c-.13-.82-.79-1.47-1.62-1.6v-.85h18.17v.85Z"/>
      <path d="M20.78,20.36c1.32.07,2.48-1.01,2.54-2.29.1-1.31-.93-2.48-2.25-2.58-1.32-.13-2.54.82-2.71,2.12-.17,1.31.79,2.58,2.15,2.74h.26s-1.32-.03,0,0ZM20.88,16.28c.99,0,1.78.88,1.62,1.86-.07.46-.33.85-.69,1.11-.36.26-.96.42-1.39.16-.4-.26-.5-.82-.23-1.18.13-.2.36-.29.56-.33.26-.03.5-.13.5-.42,0-.59-.79-.39-1.09-.26-.43.2-.79.59-.89,1.08-.26-1.01.53-2.03,1.62-2.03Z"/>
      <path d="M13.44,15.46c-1.32,0-2.44,1.08-2.48,2.38-.03,1.34,1.06,2.48,2.38,2.51,1.32.07,2.48-1.01,2.54-2.29.1-1.31-.93-2.48-2.25-2.58-.07-.03-.13-.03-.2-.03ZM13.44,19.55c-.53,0-.96-.52-.79-1.05.07-.23.26-.42.5-.52s.53,0,.66-.26c.13-.23.03-.49-.2-.59-.23-.1-.56,0-.76.1-.5.2-.86.62-.99,1.11-.4-1.5,1.45-2.65,2.64-1.67,1.16.95.43,2.87-1.06,2.87Z"/>
      <path d="M17.04,13.83c1.32.07,2.48-1.01,2.54-2.29.1-1.31-.93-2.48-2.25-2.58-1.32-.13-2.54.82-2.71,2.12-.17,1.31.79,2.58,2.15,2.74h.26s-1.32-.03,0,0ZM17.14,9.75c.99,0,1.78.88,1.62,1.86-.07.46-.33.85-.69,1.11-.36.26-.96.42-1.39.16-.4-.26-.5-.82-.23-1.18.13-.2.36-.29.56-.33.26-.03.5-.13.5-.42,0-.59-.79-.39-1.09-.26-.43.2-.79.62-.89,1.08-.23-1.01.56-2.03,1.62-2.03Z"/>
    </g>
  </g>
</svg>