<?xml version="1.0" encoding="UTF-8"?>
<svg id="Capa_1" data-name="Capa 1" xmlns="http://www.w3.org/2000/svg" viewBox="0 0 35 35">
  <defs>
    <style>
      .cls-1 {
        fill: #fcf8ed;
      }

      .cls-2 {
        fill: #1c1c1c;
      }
    </style>
  </defs>
  <circle class="cls-1" cx="17.63" cy="17.33" r="14.23"/>
  <g>
    <path class="cls-2" d="M18.05,21.26c1.73,0,3.21-1.11,3.69-2.67.74,0,1.35-.63,1.35-1.36s-.61-1.36-1.38-1.36h-.13c-.58-1.27-1.83-2.19-3.31-2.28v-.83c0-.22-.19-.41-.42-.41h-6.1c-.22,0-.42.19-.42.41v.83c-1.54.06-2.82.98-3.43,2.28h-.13c-.77,0-1.38.6-1.38,1.36s.61,1.33,1.35,1.36c.51,1.55,1.96,2.67,3.69,2.67,1.35,0,2.57-.7,3.27-1.78.74,1.08,1.99,1.78,3.34,1.78ZM21.87,16.69c.22.06.42.29.42.54,0,.22-.16.44-.35.51.03-.19,0-.7-.06-1.05ZM12.18,13.17h5.33v.41h-5.33v-.41ZM7.59,17.74c-.19-.1-.35-.29-.35-.51,0-.25.16-.48.42-.54-.06.35-.06.7-.06,1.05ZM14.39,18.44c-.42,1.21-1.61,2.03-2.89,2.03-1.54,0-2.79-1.11-3.05-2.57-.29-1.87,1.19-3.49,3.05-3.49h6.58c1.64,0,2.99,1.27,3.05,2.89.1,1.71-1.28,3.17-3.05,3.17-1.32,0-2.47-.82-2.89-2.03-.16-.38-.71-.38-.8,0Z"/>
    <path class="cls-2" d="M24.86,8.73c-.67,0-1.22.54-1.22,1.21v10.12c0,1.9-1.57,3.43-3.47,3.43-1.22,0-2.31-.6-2.95-1.62-.06-.13-.19-.19-.35-.19h-1.83c-.29,0-.48.29-.39.57.9,2.19,3.05,3.68,5.52,3.68,3.27,0,5.94-2.63,5.94-5.87v-10.12c-.03-.67-.58-1.21-1.25-1.21ZM24.86,9.52c.22,0,.42.19.42.41v.82h-.83v-.82c0-.22.19-.41.42-.41ZM20.14,25.1c-1.89,0-3.6-1.02-4.49-2.63h.96c.8,1.14,2.12,1.81,3.53,1.81,2.38,0,4.3-1.9,4.3-4.25v-8.47h.83v8.5c0,2.79-2.31,5.05-5.14,5.05Z"/>
    <path class="cls-2" d="M12.34,15.26l-2.44,1.62c-.35.22-.16.73.22.73.06,0,.16-.03.22-.06l2.44-1.62c.19-.13.26-.38.13-.57-.13-.16-.39-.22-.58-.1Z"/>
    <path class="cls-2" d="M11.12,17.71l-1.22.79c-.32.22-.16.73.22.73.06,0,.16-.03.22-.06l1.22-.79c.19-.13.26-.38.13-.57-.13-.19-.39-.22-.58-.1Z"/>
    <path class="cls-2" d="M16.9,17.55l2.47-1.62c.19-.13.26-.38.1-.57-.13-.19-.39-.25-.58-.13l-2.47,1.62c-.19.13-.26.38-.1.57.13.22.39.25.58.13Z"/>
    <path class="cls-2" d="M16.9,19.17l1.22-.79c.19-.13.26-.38.1-.57-.13-.19-.39-.25-.58-.1l-1.22.79c-.19.13-.26.38-.1.57.13.19.39.22.58.1Z"/>
  </g>
</svg>