<?xml version="1.0" encoding="UTF-8"?>
<svg id="Capa_1" data-name="Capa 1" xmlns="http://www.w3.org/2000/svg" viewBox="0 0 35 35">
  <defs>
    <style>
      .cls-1 {
        fill: #fcf8ed;
      }
    </style>
  </defs>
  <circle class="cls-1" cx="17.63" cy="19.01" r="14.23"/>
  <g>
    <path d="M18.89,18.38c-.43-.72-1.4-.78-2.1-.48-.09-.75-.64-1.56-1.46-1.56s-1.4.81-1.46,1.53c-.67-.3-1.61-.24-2.07.42-.49.72-.06,1.62.58,2.1-.58.42-1,1.2-.7,1.92.36.81,1.4.93,2.16.6.09.75.64,1.56,1.46,1.56s1.4-.81,1.46-1.53c.67.3,1.55.24,2-.36.55-.72.12-1.68-.55-2.16.76-.51,1.06-1.38.67-2.04-.24-.39.39.66,0,0ZM15.34,17.12c.73,0,.82,1.08.58,1.56-.18.27-.33.57-.52.87-.03.06-.06.09-.09.15-.03-.06-.06-.09-.09-.15-.15-.3-.3-.6-.49-.87-.21-.51-.12-1.56.61-1.56ZM12.42,18.77c.36-.63,1.34-.15,1.64.27.15.3.33.57.49.87.03.06.06.09.09.15h-.18c-.33,0-.67-.03-1,0-.49-.09-1.4-.66-1.03-1.29.12-.18-.12.18,0,0ZM13.03,22.37c-.46,0-.79-.33-.64-.78.15-.45.61-.72,1.09-.78.33.03.67,0,1,0h.18c-.03.06-.06.09-.09.15-.18.27-.36.57-.52.87-.24.33-.61.54-1.03.54ZM15.34,23.72c-.73,0-.82-1.08-.58-1.56.18-.27.33-.57.52-.87.03-.06.06-.09.09-.15.03.06.06.09.09.15.15.3.3.6.49.87.18.51.12,1.56-.61,1.56ZM18.22,22.07c-.36.63-1.34.15-1.64-.27-.15-.3-.33-.57-.49-.87-.03-.06-.06-.09-.09-.15h.18c.33,0,.67.03,1,0,.52.09,1.43.66,1.03,1.29-.09.18.12-.18,0,0ZM17.68,19.91c-.12.06-.27.12-.52.15-.33-.03-.67,0-1,0h-.18c.03-.06.06-.09.09-.15.18-.27.36-.57.52-.87.3-.42,1.12-.81,1.58-.36.43.39-.09,1.02-.49,1.23-.12.06.52-.27,0,0Z"/>
    <path d="M22.87,11.59h-6.07c-1.46,0-2.61,1.17-2.61,2.58v.24h-3.34c-1.46,0-2.61,1.17-2.61,2.58v6.85c0,1.44,1.18,2.58,2.61,2.58h8.96c1.46,0,2.61-1.17,2.61-2.58v-2.64h.43c1.46,0,2.61-1.17,2.61-2.58v-4.44c.03-1.44-1.15-2.58-2.58-2.58ZM21.68,23.84c0,1.02-.85,1.83-1.85,1.83h-8.99c-1.03,0-1.85-.84-1.85-1.83v-6.85c0-1.02.85-1.83,1.85-1.83h8.96c1.03,0,1.85.84,1.85,1.83v3.84l.03,3h0ZM24.72,18.62c0,1.02-.85,1.83-1.85,1.83h-.43v-3.45c0-1.44-1.18-2.58-2.61-2.58h-4.92v-.24c0-1.02.85-1.83,1.85-1.83h6.07c1.03,0,1.85.84,1.85,1.83l.03,4.44h0Z"/>
    <path d="M19.62,15.95h-2.28c-.49,0-.49.75,0,.75h2.28c.49,0,.49-.75,0-.75Z"/>
  </g>
</svg>