<?xml version="1.0" encoding="UTF-8"?>
<svg id="Capa_1" data-name="Capa 1" xmlns="http://www.w3.org/2000/svg" viewBox="0 0 35 35">
  <defs>
    <style>
      .cls-1 {
        fill: #fcf8ed;
      }
    </style>
  </defs>
  <circle class="cls-1" cx="17.99" cy="17.73" r="14.23"/>
  <g>
    <path d="M21.59,19.89c-.45,1.1-.4,2.29.35,3.24.3.4.91.65,1.21.05.25-.5-.3-.85-.5-1.3-.3-.8.05-1.59.5-2.24.5-.7,1.01-1.3,1.31-2.09.86-1.94.76-4.19-.1-6.13-.2-.45-.55-1.4-1.06-1.59-.45-.2-.91.2-.86.65,0,.2.15.3.25.45,1.46,2.29,1.46,5.18-.1,7.42-.1.15-.66.75-1.01,1.54-.55,1.25.35-.8,0,0Z"/>
    <path d="M20.13,13.16c.45,1.84.1,3.59-1.06,5.23-.66.7-1.21,1.64-1.31,2.64-.05.55.05,1.05.25,1.54.2.45.66,1.2,1.26.95.55-.2.45-.75.15-1.1s-.45-.85-.4-1.3c.05-.7.45-1.3.91-1.79,1.36-1.49,1.86-3.84,1.51-5.78-.15-1-.5-1.94-1.01-2.84-.25-.45-.91-1.39-1.41-.6-.25.4.05.75.25,1.05.4.6.71,1.25.86,1.99.45,1.84-.3-1.45,0,0Z"/>
    <path d="M17,13.16c.45,1.84.1,3.59-1.06,5.23-.66.7-1.21,1.64-1.31,2.64-.05.55.05,1.05.25,1.54.2.45.66,1.2,1.26.95.55-.2.45-.75.15-1.1s-.45-.85-.4-1.3c.05-.7.45-1.3.91-1.79,1.36-1.49,1.86-3.84,1.51-5.78-.15-1-.5-1.94-1.01-2.84-.25-.45-.91-1.39-1.41-.6-.25.4.05.75.25,1.05.4.6.71,1.25.86,1.99.45,1.84-.35-1.45,0,0Z"/>
    <path d="M12.77,23.53c.5,0,.81-.55.55-.95-.3-.45-.55-.75-.55-1.3,0-.7.4-1.39.86-1.94,1.31-1.54,1.86-3.69,1.61-5.68-.1-.6-1.06-4.73-2.32-3.79-.6.45.15,1.25.35,1.69.5,1.05.81,2.19.76,3.39-.05,1.2-.5,2.34-1.21,3.34-.66.7-1.16,1.59-1.31,2.49-.1.55,0,1.1.2,1.59.15.45.55,1.15,1.06,1.15Z"/>
  </g>
</svg>