<?xml version="1.0" encoding="UTF-8"?>
<svg id="Capa_1" data-name="Capa 1" xmlns="http://www.w3.org/2000/svg" viewBox="0 0 240 40">
  <defs>
    <style>
      .cls-1 {
        fill: #d6ff57;
      }
    </style>
  </defs>
  <polygon class="cls-1" points="239.12 37.26 1.04 37.26 1.04 2.05 239.12 2.05 229.12 19.66 239.12 37.26"/>
  <g>
    <path d="M11.21,13.42h3.96v10.86h6.68v3.14h-10.64v-14Z"/>
    <path d="M26.26,26.76c-1.18-.63-2.11-1.49-2.78-2.6-.67-1.11-1.01-2.35-1.01-3.74s.34-2.63,1.01-3.74c.67-1.11,1.6-1.97,2.78-2.6,1.18-.63,2.51-.94,3.99-.94s2.81.31,3.99.94c1.18.63,2.11,1.49,2.78,2.6.67,1.11,1.01,2.35,1.01,3.74s-.34,2.63-1.01,3.74c-.67,1.11-1.6,1.97-2.78,2.6-1.18.63-2.51.94-3.99.94s-2.81-.31-3.99-.94ZM32.17,23.92c.57-.33,1.03-.8,1.36-1.41.33-.61.5-1.3.5-2.09s-.17-1.48-.5-2.09c-.33-.61-.79-1.08-1.36-1.41s-1.21-.5-1.92-.5-1.35.17-1.92.5-1.03.8-1.36,1.41-.5,1.3-.5,2.09.17,1.48.5,2.09c.33.61.79,1.08,1.36,1.41s1.21.5,1.92.5,1.35-.17,1.92-.5Z"/>
    <path d="M61.49,29.04c-.47.57-1.04,1.01-1.71,1.31-.67.3-1.41.45-2.21.45s-1.47-.1-2.1-.3c-.63-.2-1.26-.53-1.89-.99-.63-.46-1.34-1.1-2.13-1.93-1.21-.2-2.29-.63-3.24-1.3-.95-.67-1.68-1.51-2.21-2.52-.53-1.01-.79-2.13-.79-3.34,0-1.39.34-2.63,1.01-3.74.67-1.11,1.6-1.97,2.78-2.6,1.18-.63,2.51-.94,3.99-.94s2.81.31,3.99.94c1.18.63,2.11,1.49,2.78,2.6.67,1.11,1.01,2.35,1.01,3.74,0,1.57-.43,2.96-1.29,4.17-.86,1.21-2.02,2.07-3.47,2.59.27.29.53.5.79.62.26.12.54.18.85.18.79,0,1.49-.33,2.12-.98l1.72,2.04ZM49.71,22.51c.33.61.79,1.08,1.36,1.41s1.21.5,1.92.5,1.35-.17,1.92-.5,1.03-.8,1.36-1.41c.33-.61.5-1.3.5-2.09s-.17-1.48-.5-2.09c-.33-.61-.79-1.08-1.36-1.41s-1.21-.5-1.92-.5-1.35.17-1.92.5-1.03.8-1.36,1.41-.5,1.3-.5,2.09.17,1.48.5,2.09Z"/>
    <path d="M64.46,26c-1.15-1.13-1.73-2.74-1.73-4.82v-7.76h3.96v7.64c0,2.24.89,3.36,2.66,3.36s2.64-1.12,2.64-3.36v-7.64h3.9v7.76c0,2.08-.58,3.69-1.73,4.82-1.15,1.13-2.77,1.7-4.85,1.7s-3.7-.57-4.85-1.7Z"/>
    <path d="M89.8,24.36v3.06h-11.24v-14h10.98v3.06h-7.06v2.36h6.22v2.96h-6.22v2.56h7.32Z"/>
    <path d="M110.46,21.43c.45.59.68,1.31.68,2.15,0,1.23-.49,2.17-1.48,2.84-.99.67-2.41,1-4.28,1h-7.56v-14h7.16c1.79,0,3.15.33,4.08.99.93.66,1.4,1.55,1.4,2.67,0,.67-.16,1.26-.49,1.79s-.79.94-1.39,1.25c.8.28,1.43.72,1.88,1.31ZM101.75,16.28v2.7h2.72c1.33,0,2-.45,2-1.36s-.67-1.34-2-1.34h-2.72ZM107.14,23.14c0-.95-.69-1.42-2.08-1.42h-3.32v2.84h3.32c1.39,0,2.08-.47,2.08-1.42Z"/>
    <path d="M114.81,26c-1.15-1.13-1.73-2.74-1.73-4.82v-7.76h3.96v7.64c0,2.24.89,3.36,2.66,3.36s2.64-1.12,2.64-3.36v-7.64h3.9v7.76c0,2.08-.58,3.69-1.73,4.82-1.15,1.13-2.77,1.7-4.85,1.7s-3.7-.57-4.85-1.7Z"/>
    <path d="M130.54,27.28c-1.07-.28-1.93-.65-2.6-1.12l1.3-2.92c.63.41,1.35.75,2.18,1,.83.25,1.64.38,2.44.38,1.52,0,2.28-.38,2.28-1.14,0-.4-.22-.7-.65-.89s-1.13-.4-2.09-.61c-1.05-.23-1.93-.47-2.64-.73-.71-.26-1.31-.68-1.82-1.25s-.76-1.35-.76-2.32c0-.85.23-1.62.7-2.31.47-.69,1.16-1.23,2.09-1.63.93-.4,2.06-.6,3.41-.6.92,0,1.83.1,2.72.31.89.21,1.68.51,2.36.91l-1.22,2.94c-1.33-.72-2.63-1.08-3.88-1.08-.79,0-1.36.12-1.72.35s-.54.54-.54.91.21.65.64.84,1.11.38,2.06.58c1.07.23,1.95.47,2.65.73.7.26,1.31.67,1.82,1.24.51.57.77,1.34.77,2.31,0,.84-.23,1.6-.7,2.28-.47.68-1.17,1.22-2.1,1.63s-2.07.61-3.4.61c-1.13,0-2.23-.14-3.3-.42Z"/>
    <path d="M144.89,26.77c-1.17-.62-2.08-1.48-2.75-2.59-.67-1.11-1-2.36-1-3.76s.33-2.65,1-3.76,1.58-1.97,2.75-2.59c1.17-.62,2.48-.93,3.95-.93,1.28,0,2.43.23,3.46.68s1.88,1.11,2.56,1.96l-2.52,2.28c-.91-1.09-2.01-1.64-3.3-1.64-.76,0-1.44.17-2.03.5-.59.33-1.05.8-1.38,1.41-.33.61-.49,1.3-.49,2.09s.16,1.48.49,2.09c.33.61.79,1.08,1.38,1.41.59.33,1.27.5,2.03.5,1.29,0,2.39-.55,3.3-1.64l2.52,2.28c-.68.85-1.53,1.51-2.56,1.96s-2.18.68-3.46.68c-1.47,0-2.78-.31-3.95-.93Z"/>
    <path d="M165.76,24.7h-5.92l-1.1,2.72h-4.04l6.18-14h3.9l6.2,14h-4.12l-1.1-2.72ZM164.6,21.78l-1.8-4.48-1.8,4.48h3.6Z"/>
    <path d="M184.74,27.42l-.04-7.42-3.6,6.04h-1.76l-3.58-5.84v7.22h-3.66v-14h3.26l4.92,8.08,4.8-8.08h3.26l.04,14h-3.64Z"/>
    <path d="M194.25,26.76c-1.18-.63-2.11-1.49-2.78-2.6-.67-1.11-1.01-2.35-1.01-3.74s.34-2.63,1.01-3.74c.67-1.11,1.6-1.97,2.78-2.6,1.18-.63,2.51-.94,3.99-.94s2.81.31,3.99.94c1.18.63,2.11,1.49,2.78,2.6.67,1.11,1.01,2.35,1.01,3.74s-.34,2.63-1.01,3.74c-.67,1.11-1.6,1.97-2.78,2.6-1.18.63-2.51.94-3.99.94s-2.81-.31-3.99-.94ZM200.16,23.92c.57-.33,1.03-.8,1.36-1.41.33-.61.5-1.3.5-2.09s-.17-1.48-.5-2.09c-.33-.61-.79-1.08-1.36-1.41s-1.21-.5-1.92-.5-1.35.17-1.92.5-1.03.8-1.36,1.41-.5,1.3-.5,2.09.17,1.48.5,2.09c.33.61.79,1.08,1.36,1.41s1.21.5,1.92.5,1.35-.17,1.92-.5Z"/>
    <path d="M209.72,27.28c-1.07-.28-1.93-.65-2.6-1.12l1.3-2.92c.63.41,1.35.75,2.18,1,.83.25,1.64.38,2.44.38,1.52,0,2.28-.38,2.28-1.14,0-.4-.22-.7-.65-.89s-1.13-.4-2.09-.61c-1.05-.23-1.93-.47-2.64-.73-.71-.26-1.31-.68-1.82-1.25s-.76-1.35-.76-2.32c0-.85.23-1.62.7-2.31.47-.69,1.16-1.23,2.09-1.63.93-.4,2.06-.6,3.41-.6.92,0,1.83.1,2.72.31.89.21,1.68.51,2.36.91l-1.22,2.94c-1.33-.72-2.63-1.08-3.88-1.08-.79,0-1.36.12-1.72.35s-.54.54-.54.91.21.65.64.84,1.11.38,2.06.58c1.07.23,1.95.47,2.65.73.7.26,1.31.67,1.82,1.24.51.57.77,1.34.77,2.31,0,.84-.23,1.6-.7,2.28-.47.68-1.17,1.22-2.1,1.63s-2.07.61-3.4.61c-1.13,0-2.23-.14-3.3-.42Z"/>
  </g>
</svg>