<?xml version="1.0" encoding="UTF-8"?>
<svg id="Capa_1" data-name="Capa 1" xmlns="http://www.w3.org/2000/svg" xmlns:xlink="http://www.w3.org/1999/xlink" viewBox="0 0 400 150">
  <defs>
    <style>
      .cls-1 {
        fill: none;
      }

      .cls-2 {
        fill: #d6ff57;
      }

      .cls-3 {
        fill: #141414;
      }

      .cls-4 {
        fill: #fff;
      }

      .cls-5 {
        clip-path: url(#clippath);
      }
    </style>
    <clipPath id="clippath">
      <rect class="cls-1" x="-1458.42" y="221.58" width="1936.87" height="860.71"/>
    </clipPath>
  </defs>
  <g class="cls-5">
    <image width="3690" height="5166" transform="translate(-1458.42 -1511.54) scale(.72)" xlink:href="../../../../../../Downloads/DSC03048.jpg"/>
  </g>
  <g>
    <rect class="cls-3" x="24.02" y="47.55" width="350.91" height="86.13" rx="37.04" ry="37.04"/>
    <g>
      <path class="cls-4" d="M122.84,88.14c0-10.1,8.39-16.52,21.61-16.52,10.06,0,17.79,4.35,19.9,11.25l-10.41,2.2c-1.05-3.29-4.66-5.36-9.18-5.36-6.37,0-10.46,3.29-10.46,8.43s4.57,8.43,11.77,8.43c5.67,0,9.8-2.42,10.72-6.24l10.54,1.89c-1.67,7.6-10.02,12.43-21.57,12.43-14.01,0-22.93-6.11-22.93-16.52Z"/>
      <path class="cls-4" d="M170.23,72.41h22.36c12.21,0,19.02,5.62,19.02,15.73s-6.81,15.73-19.02,15.73h-22.36v-31.46ZM191.01,96.09c6.06,0,9.49-2.86,9.49-7.95s-3.43-8-9.49-8h-9.62v15.95h9.62Z"/>
      <path class="cls-4" d="M215.25,72.41h14.85l10.89,21.35h.09l10.76-21.35h15.02v31.46h-10.81v-19.72h-.09l-9.84,19.72h-9.8l-10.19-19.72h-.09v19.72h-10.81v-31.46Z"/>
      <path class="cls-4" d="M284.3,87.44l-15.02-15.03h11.73l9.75,9.88,10.02-9.88h11.95l-15.38,14.89,15.55,16.56h-11.99l-10.02-11.12-10.02,11.12h-11.77l15.2-16.43Z"/>
    </g>
    <circle class="cls-2" cx="64.33" cy="56.34" r="39.23"/>
    <g id="_442_Building_City_House_Office" data-name="442, Building, City, House, Office">
      <g>
        <path d="M41.92,44.15h17.31c.26,0,.52-.26.52-.52v-4.85c0-.26-.26-.52-.52-.52h-2.68c-.26,0-.52.26-.52.52v4.33h-1.13v-4.33c0-.26-.26-.52-.52-.52h-2.68c-.26,0-.52.26-.52.52v4.33h-1.13v-4.33c0-.26-.26-.52-.52-.52h-2.68c-.26,0-.52.26-.52.52v4.33h-1.13v-4.33c0-.26-.26-.52-.52-.52h-2.68c-.26,0-.52.26-.52.52v4.85c-.09.26.09.52.43.52ZM57.07,39.31h1.64v3.81h-1.64v-3.81ZM52.22,39.31h1.64v3.81h-1.64v-3.81ZM47.29,39.31h1.64v3.81h-1.64v-3.81ZM42.44,39.31h1.64v3.81h-1.64v-3.81Z"/>
        <path d="M41.92,51.17h17.31c.26,0,.52-.26.52-.52v-4.85c0-.26-.26-.52-.52-.52h-2.68c-.26,0-.52.26-.52.52v4.33h-1.13v-4.33c0-.26-.26-.52-.52-.52h-2.68c-.26,0-.52.26-.52.52v4.33h-1.13v-4.33c0-.26-.26-.52-.52-.52h-2.68c-.26,0-.52.26-.52.52v4.33h-1.13v-4.33c0-.26-.26-.52-.52-.52h-2.68c-.26,0-.52.26-.52.52v4.85c-.09.26.09.52.43.52ZM57.07,46.32h1.64v3.81h-1.64v-3.81ZM52.22,46.32h1.64v3.81h-1.64v-3.81ZM47.29,46.32h1.64v3.81h-1.64v-3.81ZM42.44,46.32h1.64v3.81h-1.64v-3.81Z"/>
        <path d="M41.92,58.26h17.31c.26,0,.52-.26.52-.52v-4.85c0-.26-.26-.52-.52-.52h-2.68c-.26,0-.52.26-.52.52v4.33h-1.13v-4.33c0-.26-.26-.52-.52-.52h-2.68c-.26,0-.52.26-.52.52v4.33h-1.13v-4.33c0-.26-.26-.52-.52-.52h-2.68c-.26,0-.52.26-.52.52v4.33h-1.13v-4.33c0-.26-.26-.52-.52-.52h-2.68c-.26,0-.52.26-.52.52v4.85c-.09.26.09.52.43.52ZM57.07,53.33h1.64v3.81h-1.64v-3.81ZM52.22,53.33h1.64v3.81h-1.64v-3.81ZM47.29,53.33h1.64v3.81h-1.64v-3.81ZM42.44,53.33h1.64v3.81h-1.64v-3.81Z"/>
        <path d="M41.92,65.27h17.31c.26,0,.52-.26.52-.52v-4.85c0-.26-.26-.52-.52-.52h-2.68c-.26,0-.52.26-.52.52v4.33h-1.13v-4.33c0-.26-.26-.52-.52-.52h-2.68c-.26,0-.52.26-.52.52v4.33h-1.13v-4.33c0-.26-.26-.52-.52-.52h-2.68c-.26,0-.52.26-.52.52v4.33h-1.13v-4.33c0-.26-.26-.52-.52-.52h-2.68c-.26,0-.52.26-.52.52v4.85c-.09.26.09.52.43.52ZM57.07,60.43h1.64v3.81h-1.64v-3.81ZM52.22,60.43h1.64v3.81h-1.64v-3.81ZM47.29,60.43h1.64v3.81h-1.64v-3.81ZM42.44,60.43h1.64v3.81h-1.64v-3.81Z"/>
        <path d="M41.92,72.28h17.31c.26,0,.52-.26.52-.52v-4.85c0-.26-.26-.52-.52-.52h-2.68c-.26,0-.52.26-.52.52v4.33h-1.13v-4.33c0-.26-.26-.52-.52-.52h-2.68c-.26,0-.52.26-.52.52v4.33h-1.13v-4.33c0-.26-.26-.52-.52-.52h-2.68c-.26,0-.52.26-.52.52v4.33h-1.13v-4.33c0-.26-.26-.52-.52-.52h-2.68c-.26,0-.52.26-.52.52v4.85c-.09.26.09.52.43.52ZM57.07,67.44h1.64v3.81h-1.64v-3.81ZM52.22,67.44h1.64v3.81h-1.64v-3.81ZM47.29,67.44h1.64v3.81h-1.64v-3.81ZM42.44,67.44h1.64v3.81h-1.64v-3.81Z"/>
        <path d="M89.52,66.05v-8.14c0-2.16-1.82-3.98-3.98-3.98s-3.98,1.82-3.98,3.98v1.9c-.35-.35-.78-.61-1.21-.78v-11.08c0-.26-.26-.52-.52-.52h-17.92v-12.46c0-.26-.26-.52-.52-.52h-2.16v-2.16c0-.26-.26-.52-.52-.52h-16.79c-.26,0-.52.26-.52.52v2.16h-1.64c-.26,0-.52.26-.52.52v43.8h-.52c-.26,0-.52.26-.52.52s.26.52.52.52h50.29c.26,0,.52-.26.52-.52s-.26-.52-.52-.52h-2.86v-8.83c1.9-.26,3.38-1.9,3.38-3.9ZM82.69,57.83c0-1.56,1.3-2.86,2.86-2.86s2.86,1.3,2.86,2.86v8.14c0,1.38-1.04,2.6-2.34,2.86v-2.6l1.21-1.56c.17-.26.17-.61-.09-.78-.26-.17-.61-.17-.78.09l-.35.43v-1.21l1.64-2.16c.17-.26.17-.61-.09-.78-.26-.17-.61-.17-.78.09l-.78.95v-2.25c0-.26-.26-.52-.52-.52s-.52.26-.52.52v4.07l-.35-.35c-.17-.26-.52-.35-.78-.17-.26.17-.35.52-.17.78l1.21,1.99v3.46c-1.3-.26-2.34-1.47-2.34-2.86l.09-8.14h0ZM81.56,61.38v5.11c-.69.87-1.64,1.47-2.77,1.64v-.52l1.21-1.56c.17-.26.17-.61-.09-.78-.26-.17-.61-.17-.78.09l-.35.43v-1.82c0-.26-.26-.52-.52-.52s-.52.26-.52.52v.95l-.35-.43c-.17-.26-.52-.26-.78-.09-.26.17-.26.52-.09.78l1.21,1.56v1.38c-2.08-.26-3.64-1.99-3.64-4.15,0-2.34,1.9-4.15,4.15-4.15,1.3-.09,2.51.52,3.29,1.56ZM79.22,48.48v10.21c-3.29-.61-6.23,1.9-6.23,5.19,0,2.68,2.08,4.93,4.76,5.19v9.69h-15.84v-30.29h17.31ZM42.44,32.82h15.67v1.64h-15.67v-1.64ZM60.87,35.5v40.07h-20.6v-40.07h20.6ZM40.27,76.61h20.6v2.16h-20.6v-2.16ZM78.79,78.78v-9.69c1.21-.09,2.25-.61,3.12-1.47.52,1.21,1.73,2.16,3.12,2.34v8.83h-6.23Z"/>
        <path d="M63.56,51.77h14.11c.26,0,.52-.26.52-.52s-.26-.52-.52-.52h-14.11c-.26,0-.52.26-.52.52s.17.52.52.52Z"/>
        <path d="M63.56,54.45h14.11c.26,0,.52-.26.52-.52s-.26-.52-.52-.52h-14.11c-.26,0-.52.26-.52.52s.17.52.52.52Z"/>
        <path d="M63.56,57.14h14.11c.26,0,.52-.26.52-.52s-.26-.52-.52-.52h-14.11c-.26,0-.52.26-.52.52s.17.52.52.52Z"/>
        <path d="M63.56,59.82h9.78c.26,0,.52-.26.52-.52s-.26-.52-.52-.52h-9.78c-.26,0-.52.26-.52.52s.17.52.52.52Z"/>
        <path d="M63.56,62.59h6.49c.26,0,.52-.26.52-.52s-.26-.52-.52-.52h-6.49c-.26,0-.52.26-.52.52s.17.52.52.52Z"/>
        <path d="M63.56,65.27h7.01c.26,0,.52-.26.52-.52s-.26-.52-.52-.52h-7.01c-.26,0-.52.26-.52.52s.17.52.52.52Z"/>
        <path d="M63.56,67.96h8.66c.26,0,.52-.26.52-.52s-.26-.52-.52-.52h-8.66c-.26,0-.52.26-.52.52s.17.52.52.52Z"/>
        <path d="M63.56,70.64h12.46c.26,0,.52-.26.52-.52s-.26-.52-.52-.52h-12.46c-.26,0-.52.26-.52.52s.17.52.52.52Z"/>
        <path d="M63.56,73.41h12.46c.26,0,.52-.26.52-.52s-.26-.52-.52-.52h-12.46c-.26,0-.52.26-.52.52s.17.52.52.52Z"/>
      </g>
    </g>
  </g>
</svg>