<?xml version="1.0" encoding="UTF-8"?>
<svg id="Capa_1" data-name="Capa 1" xmlns="http://www.w3.org/2000/svg" viewBox="0 0 70 70">
  <defs>
    <style>
      .cls-1 {
        fill: #d6ff57;
      }

      .cls-2 {
        fill: #fff;
      }
    </style>
  </defs>
  <path class="cls-1" d="M34.51,63.37c-15.91,0-28.85-12.94-28.85-28.85S18.6,5.67,34.51,5.67s28.85,12.94,28.85,28.85-12.94,28.85-28.85,28.85ZM34.51,6.67c-15.35,0-27.85,12.49-27.85,27.85s12.49,27.85,27.85,27.85,27.85-12.49,27.85-27.85S49.86,6.67,34.51,6.67Z"/>
  <path class="cls-2" d="M42.9,32.32l-.47,3.79c-.08.63-.62,1.11-1.25,1.11h-6.14v15.86c-.65.06-1.3.09-1.97.09-1.48,0-2.93-.15-4.33-.43v-15.51h-4.72c-.43,0-.79-.36-.79-.79v-4.74c0-.43.35-.79.79-.79h4.72v-7.12c0-4.37,3.53-7.91,7.88-7.91h5.51c.43,0,.79.36.79.79v4.74c0,.43-.35.79-.79.79h-3.94c-1.74,0-3.15,1.42-3.15,3.16v5.54h6.61c.76,0,1.35.67,1.25,1.42Z"/>
</svg>