<?xml version="1.0" encoding="UTF-8"?>
<svg id="Capa_1" data-name="Capa 1" xmlns="http://www.w3.org/2000/svg" viewBox="0 0 70 70">
  <defs>
    <style>
      .cls-1 {
        fill: #d6ff57;
      }

      .cls-2 {
        fill: #fff;
      }
    </style>
  </defs>
  <path class="cls-1" d="M34.54,64.29c-15.87,0-28.77-12.91-28.77-28.77S18.68,6.75,34.54,6.75s28.77,12.91,28.77,28.77-12.91,28.77-28.77,28.77ZM34.54,7.75c-15.31,0-27.77,12.46-27.77,27.77s12.46,27.77,27.77,27.77,27.77-12.46,27.77-27.77S49.86,7.75,34.54,7.75Z"/>
  <path class="cls-2" d="M42.21,20.69h-15.34c-3.95,0-7.16,3.21-7.16,7.16v15.34c0,3.95,3.21,7.16,7.16,7.16h15.34c3.95,0,7.16-3.21,7.16-7.16v-15.34c0-3.95-3.21-7.16-7.16-7.16ZM46.82,42.68c0,2.82-2.29,5.11-5.11,5.11h-14.32c-2.82,0-5.11-2.29-5.11-5.11v-14.32c0-2.82,2.29-5.11,5.11-5.11h14.32c2.82,0,5.11,2.29,5.11,5.11v14.32Z"/>
  <path class="cls-2" d="M34.56,27.85c-4.23,0-7.67,3.44-7.67,7.67s3.44,7.67,7.67,7.67,7.67-3.44,7.67-7.67-3.44-7.67-7.67-7.67ZM34.56,40.63c-2.82,0-5.11-2.3-5.11-5.11s2.3-5.11,5.11-5.11,5.11,2.3,5.11,5.11-2.3,5.11-5.11,5.11Z"/>
  <circle class="cls-2" cx="42.74" cy="27.34" r="1.53"/>
</svg>