<?xml version="1.0" encoding="UTF-8"?>
<svg id="Capa_1" data-name="Capa 1" xmlns="http://www.w3.org/2000/svg" viewBox="0 0 400 150">
  <defs>
    <style>
      .cls-1 {
        fill: #d6ff57;
      }

      .cls-2 {
        fill: #141414;
      }

      .cls-3 {
        fill: #fff;
      }
    </style>
  </defs>
  <rect class="cls-2" x="15.39" y="40.67" width="376.6" height="86.13" rx="37.04" ry="37.04"/>
  <g>
    <path class="cls-3" d="M101.35,60.83h18.46c6.5,0,10.11,2.88,10.11,8.06-.03,5.06-3.65,7.84-10.17,7.84h-10.05v7.01h-8.35v-22.91ZM117.03,72.03c2.91,0,4.51-1.15,4.51-3.26s-1.6-3.23-4.51-3.23h-7.33v6.5h7.33Z"/>
    <path class="cls-3" d="M131.79,73.18v-12.35h8.35v11.9c0,3.71,2.46,5.54,6.4,5.54s6.37-1.82,6.37-5.54v-11.9h8.32v12.35c0,7.17-5.44,11.14-14.72,11.14s-14.72-3.97-14.72-11.14Z"/>
    <path class="cls-3" d="M164.11,60.83h24.16v5.18h-16.06v3.84h14.78v4.45h-14.78v4.26h16.38v5.18h-24.48v-22.91Z"/>
    <path class="cls-3" d="M209.38,80.51l-1.44-2.4c-.96-1.34-2.37-1.98-3.87-1.98h-4.89v7.62h-8.35v-22.91h19.26c6.14,0,9.66,2.66,9.66,7.26,0,3.42-2.43,5.82-6.62,6.62v.03c.77.29,1.47.9,2.02,1.73l1.63,2.46c.42.58.96.96,1.86.96.54,0,1.31-.29,1.7-.74l1.41,3.36c-1.25,1.09-3.74,1.86-5.86,1.86-3.46,0-5.18-1.98-6.5-3.87ZM207.59,71.42c2.4,0,3.81-1.06,3.81-2.82s-1.41-2.85-3.81-2.85h-8.41v5.66h8.41Z"/>
    <path class="cls-3" d="M230.28,66.72h-8.93v-5.89h26.21v5.89h-8.93v17.02h-8.35v-17.02Z"/>
    <path class="cls-3" d="M248.17,72.28c0-7.36,6.72-12.26,16.77-12.26s16.8,4.9,16.8,12.26-6.72,12.25-16.8,12.25-16.77-4.9-16.77-12.25ZM273.38,72.28c0-3.81-3.42-6.37-8.45-6.37s-8.41,2.56-8.41,6.37,3.39,6.37,8.41,6.37,8.45-2.56,8.45-6.37Z"/>
    <path class="cls-3" d="M101.35,91.83h24.16v5.18h-16.06v3.84h14.78v4.45h-14.78v4.26h16.38v5.18h-24.48v-22.91Z"/>
    <path class="cls-3" d="M127.11,111.41l2.88-4.96c2.66,2.11,7.62,3.65,12,3.65,3.23,0,5.28-.77,5.28-1.95,0-.99-1.47-1.6-4.96-1.98l-4.22-.48c-7.23-.77-10.34-2.78-10.34-6.85,0-4.93,5.57-7.71,13.73-7.71,4.83,0,9.38,1.15,12.19,2.98l-2.34,4.8c-2.5-1.66-6.27-2.72-9.79-2.69-3.26.03-5.66.8-5.7,2.02,0,.86,1.28,1.41,4.22,1.7l4.26.45c7.74.8,11.07,2.91,11.07,7.07.03,4.74-5.41,7.97-13.82,7.97-5.5,0-11.39-1.63-14.46-4Z"/>
    <path class="cls-3" d="M157.1,103.28c0-7.36,6.11-12.03,15.74-12.03,7.33,0,12.96,3.17,14.5,8.19l-7.58,1.6c-.77-2.4-3.39-3.9-6.69-3.9-4.64,0-7.62,2.4-7.62,6.14s3.33,6.14,8.57,6.14c4.13,0,7.14-1.76,7.81-4.54l7.68,1.38c-1.22,5.54-7.3,9.06-15.71,9.06-10.21,0-16.7-4.45-16.7-12.03Z"/>
    <path class="cls-3" d="M191.08,103.28c0-7.36,6.72-12.26,16.77-12.26s16.8,4.9,16.8,12.26-6.72,12.25-16.8,12.25-16.77-4.9-16.77-12.25ZM216.3,103.28c0-3.81-3.42-6.37-8.45-6.37s-8.41,2.56-8.41,6.37,3.39,6.37,8.41,6.37,8.45-2.56,8.45-6.37Z"/>
    <path class="cls-3" d="M227.27,91.83h10.05l12.32,14.94h.03v-14.94h7.87v22.91h-10.02l-12.35-15.13h-.03v15.13h-7.87v-22.91Z"/>
    <path class="cls-3" d="M260.74,91.83h16.29c8.9,0,13.86,4.1,13.86,11.46s-4.96,11.46-13.86,11.46h-16.29v-22.91ZM275.88,109.08c4.42,0,6.91-2.08,6.91-5.79s-2.5-5.82-6.91-5.82h-7.01v11.62h7.01Z"/>
    <path class="cls-3" d="M293.54,91.83h8.29v22.91h-8.29v-22.91Z"/>
    <path class="cls-3" d="M305.03,91.83h16.29c8.89,0,13.85,4.1,13.85,11.46s-4.96,11.46-13.85,11.46h-16.29v-22.91ZM320.17,109.08c4.42,0,6.91-2.08,6.91-5.79s-2.5-5.82-6.91-5.82h-7.01v11.62h7.01Z"/>
    <path class="cls-3" d="M337.29,103.28c0-7.36,6.72-12.26,16.77-12.26s16.8,4.9,16.8,12.26-6.72,12.25-16.8,12.25-16.77-4.9-16.77-12.25ZM362.5,103.28c0-3.81-3.42-6.37-8.45-6.37s-8.41,2.56-8.41,6.37,3.39,6.37,8.41,6.37,8.45-2.56,8.45-6.37Z"/>
  </g>
  <circle class="cls-1" cx="55.15" cy="49.47" r="39.23"/>
  <path d="M74.4,49.2c-4.82.07-9.63-1.59-13.58-4.3-3.71-2.55-3.21-4.27-6.84,1.19,1.46,2.04,7.72,1.75,7.72,4.54l-4.33,7.09c3.01-.69,4.82,1.66,7.66,1.76s4.51-1.63,6.3-1.75c2.4-.16,5.12,2.43,10.04,1.56,2.19-.39,5.98-3.66,5.52.94-.41,4.11-2.82,2.43-4.77,2.6s-2.87,1.94-5.72,1.74c-2.13-.15-4.32-2.33-5.69-2.28-1.11.04-3.23,2.26-5.67,2.26-2.22,0-4.98-2.29-6.16-2.17-1.06.11-2.68,1.93-4.7,2.13-2.93.28-4.02-1.71-6.18-1.71-1.93,0-3.26,1.79-5.68,1.79s-4.43-2.12-5.68-2.12c-1.4,0-3.17,2.25-6.22,2.08-2.56-.14-6.26-2.63-6.01-5.41.28-3.08,4.1.13,5.99.3,3.47.32,4.31-1.75,6.24-1.77,2.66-.04,4.27,2.92,8.84,1.5.76-.24,1.4-1.2,2.09-1.34.85-.17,1.71.47,2.59.36,1.22-.16,5.44-5.14,4.94-5.57-2.74-.11-10,.69-10.65-2.67-.84-4.34,2.15-6.09,3.27-9.82-4.27.19-7.09,3.78-10.76,5.44-.82.18-1.7-.9-1.64-1.65.26-3.51,15.58-10.27,19.08-10.48,5.04-.29,5.84,4.49,8.43,7.19.81.85,2.85,2.33,3.89,2.92,2.86,1.62,8.19,1.84,7.69,5.65Z"/>
  <path d="M31.24,67.38c3.99-2.58,8.46.29,11.59-.01,1.63-.16,3.44-2.03,4.69-2.14s3.74,2.03,5.63,2.11c2.34.1,4.81-2.26,6.21-2.22.97.03,2.97,1.99,5.19,2.05,2.63.08,4.27-1.95,5.62-2.08,2.46-.25,4.25,3.05,9.35,1.44,1.41-.44,3.07-3.06,4,0,.22,2.38-5.11,4.86-7.13,4.86-1.74,0-3.54-.91-5.21-.97-2.65-.1-5.65,1.25-8.44.95-1.41-.15-2.41-1.08-3.43-1.15-1.32-.09-2.92.96-4.5,1.13-3.32.35-5.35-1.07-7.39-1.07-1.09,0-2.24.89-3.45,1.02-3.56.4-4.63-.52-7.49-.99-2.09-.35-5.17,1.3-5.24-2.93Z"/>
  <path d="M60.05,26.58c5.17-.92,6.2,7.35.94,7.86-4.66.45-5.73-7.01-.94-7.86Z"/>
</svg>