<?xml version="1.0" encoding="UTF-8"?>
<svg id="Capa_1" data-name="Capa 1" xmlns="http://www.w3.org/2000/svg" xmlns:xlink="http://www.w3.org/1999/xlink" viewBox="0 0 400 150">
  <defs>
    <style>
      .cls-1 {
        fill: none;
      }

      .cls-2 {
        fill: #d6ff57;
      }

      .cls-3 {
        fill: #141414;
      }

      .cls-4 {
        fill: #fff;
      }

      .cls-5 {
        clip-path: url(#clippath);
      }
    </style>
    <clipPath id="clippath">
      <rect class="cls-1" x="-1916.59" y="221.58" width="1936.87" height="860.71"/>
    </clipPath>
  </defs>
  <g class="cls-5">
    <image width="3690" height="5166" transform="translate(-1916.59 -1511.54) scale(.72)" xlink:href="../../../../../../Downloads/DSC03048.jpg"/>
  </g>
  <g>
    <rect class="cls-3" x="11.1" y="47.85" width="376.6" height="86.13" rx="37.04" ry="37.04"/>
    <g>
      <path class="cls-4" d="M97.07,68.01h18.46c6.5,0,10.11,2.88,10.11,8.06-.03,5.06-3.65,7.84-10.17,7.84h-10.05v7.01h-8.35v-22.91ZM112.74,79.21c2.91,0,4.51-1.15,4.51-3.26s-1.6-3.23-4.51-3.23h-7.33v6.5h7.33Z"/>
      <path class="cls-4" d="M127.5,80.36v-12.35h8.35v11.9c0,3.71,2.46,5.54,6.4,5.54s6.37-1.82,6.37-5.54v-11.9h8.32v12.35c0,7.17-5.44,11.13-14.72,11.13s-14.72-3.97-14.72-11.13Z"/>
      <path class="cls-4" d="M159.82,68.01h24.16v5.18h-16.06v3.84h14.78v4.45h-14.78v4.26h16.38v5.18h-24.48v-22.91Z"/>
      <path class="cls-4" d="M205.1,87.68l-1.44-2.4c-.96-1.34-2.37-1.98-3.87-1.98h-4.9v7.62h-8.35v-22.91h19.26c6.14,0,9.66,2.66,9.66,7.26,0,3.42-2.43,5.82-6.62,6.62v.03c.77.29,1.47.9,2.02,1.73l1.63,2.46c.42.58.96.96,1.86.96.54,0,1.31-.29,1.7-.74l1.41,3.36c-1.25,1.09-3.74,1.86-5.86,1.86-3.46,0-5.18-1.98-6.5-3.87ZM203.3,78.6c2.4,0,3.81-1.06,3.81-2.82s-1.41-2.85-3.81-2.85h-8.42v5.66h8.42Z"/>
      <path class="cls-4" d="M225.99,73.89h-8.93v-5.89h26.21v5.89h-8.93v17.02h-8.35v-17.02Z"/>
      <path class="cls-4" d="M243.88,79.46c0-7.36,6.72-12.25,16.77-12.25s16.8,4.9,16.8,12.25-6.72,12.25-16.8,12.25-16.77-4.9-16.77-12.25ZM269.1,79.46c0-3.81-3.42-6.37-8.45-6.37s-8.42,2.56-8.42,6.37,3.39,6.37,8.42,6.37,8.45-2.56,8.45-6.37Z"/>
      <path class="cls-4" d="M97.07,99.01h24.16v5.18h-16.06v3.84h14.78v4.45h-14.78v4.26h16.38v5.18h-24.48v-22.91Z"/>
      <path class="cls-4" d="M122.82,118.59l2.88-4.96c2.66,2.11,7.62,3.65,12,3.65,3.23,0,5.28-.77,5.28-1.95,0-.99-1.47-1.6-4.96-1.98l-4.22-.48c-7.23-.77-10.33-2.78-10.33-6.85,0-4.93,5.57-7.71,13.73-7.71,4.83,0,9.38,1.15,12.19,2.98l-2.34,4.8c-2.5-1.66-6.27-2.72-9.79-2.69-3.26.03-5.66.8-5.7,2.02,0,.86,1.28,1.41,4.22,1.7l4.26.45c7.74.8,11.07,2.91,11.07,7.07.03,4.74-5.41,7.97-13.82,7.97-5.5,0-11.39-1.63-14.46-4Z"/>
      <path class="cls-4" d="M152.81,110.46c0-7.36,6.11-12.03,15.74-12.03,7.33,0,12.96,3.17,14.5,8.19l-7.58,1.6c-.77-2.4-3.39-3.9-6.69-3.9-4.64,0-7.62,2.4-7.62,6.14s3.33,6.14,8.58,6.14c4.13,0,7.14-1.76,7.81-4.54l7.68,1.38c-1.22,5.54-7.3,9.06-15.71,9.06-10.21,0-16.7-4.45-16.7-12.03Z"/>
      <path class="cls-4" d="M186.79,110.46c0-7.36,6.72-12.25,16.77-12.25s16.8,4.9,16.8,12.25-6.72,12.25-16.8,12.25-16.77-4.9-16.77-12.25ZM212.01,110.46c0-3.81-3.42-6.37-8.45-6.37s-8.42,2.56-8.42,6.37,3.39,6.37,8.42,6.37,8.45-2.56,8.45-6.37Z"/>
      <path class="cls-4" d="M222.98,99.01h10.05l12.32,14.94h.03v-14.94h7.87v22.91h-10.02l-12.35-15.13h-.03v15.13h-7.87v-22.91Z"/>
      <path class="cls-4" d="M256.46,99.01h16.29c8.9,0,13.86,4.1,13.86,11.46s-4.96,11.46-13.86,11.46h-16.29v-22.91ZM271.59,116.25c4.42,0,6.91-2.08,6.91-5.79s-2.5-5.82-6.91-5.82h-7.01v11.62h7.01Z"/>
      <path class="cls-4" d="M289.26,99.01h8.29v22.91h-8.29v-22.91Z"/>
      <path class="cls-4" d="M300.74,99.01h16.29c8.9,0,13.85,4.1,13.85,11.46s-4.96,11.46-13.85,11.46h-16.29v-22.91ZM315.88,116.25c4.42,0,6.91-2.08,6.91-5.79s-2.5-5.82-6.91-5.82h-7.01v11.62h7.01Z"/>
      <path class="cls-4" d="M333,110.46c0-7.36,6.72-12.25,16.77-12.25s16.8,4.9,16.8,12.25-6.72,12.25-16.8,12.25-16.77-4.9-16.77-12.25ZM358.21,110.46c0-3.81-3.42-6.37-8.45-6.37s-8.42,2.56-8.42,6.37,3.39,6.37,8.42,6.37,8.45-2.56,8.45-6.37Z"/>
    </g>
    <circle class="cls-2" cx="50.87" cy="56.65" r="39.23"/>
    <g id="_76_Sea_Sun_Sunrise_Sunset" data-name="76, Sea, Sun, Sunrise, Sunset">
      <g>
        <path d="M71.49,73.57c-.71,0-1.32.6-1.32,1.3,0,1-.91,1.9-1.92,1.9-1.11,0-1.92-.9-1.92-1.9,0-.7-.61-1.3-1.32-1.3s-1.31.6-1.31,1.3c0,1-.91,1.9-1.92,1.9s-1.92-.9-1.92-2c0-.7-.61-1.3-1.31-1.3s-1.32.6-1.32,1.3c0,1-.91,1.9-1.92,1.9s-1.92-.9-1.92-1.9c0-.7-.61-1.3-1.32-1.3s-1.31.6-1.31,1.3c0,1-.91,1.9-1.92,1.9-1.11,0-1.92-.9-1.92-1.9,0-.7-.61-1.3-1.31-1.3s-1.32.6-1.32,1.3c0,1-.91,1.9-1.92,1.9-1.11,0-1.92-.9-1.92-1.9,0-.7-.61-1.3-1.32-1.3s-1.32.6-1.32,1.3c0,1-.91,1.9-1.92,1.9-1.11,0-1.92-.9-1.92-1.9,0-.7-.61-1.3-1.31-1.3s-1.11.6-1.11,1.3c0,1-.91,1.9-1.92,1.9s-1.92-.9-1.92-1.9c0-.7-.61-1.3-1.32-1.3s-1.32.6-1.32,1.3c0,2.5,2.02,4.5,4.55,4.5,1.32,0,2.43-.5,3.24-1.3,1.82,1.8,4.65,1.8,6.47,0,1.82,1.8,4.65,1.8,6.47,0,1.82,1.8,4.65,1.8,6.47,0,1.82,1.8,4.65,1.8,6.47,0,1.82,1.8,4.65,1.8,6.47,0,.81.8,1.92,1.3,3.24,1.3,2.53,0,4.55-2,4.55-4.5-.2-.7-.81-1.2-1.52-1.2Z"/>
        <path d="M37.3,72.27c1.32,0,2.43-.5,3.24-1.3,1.82,1.8,4.65,1.8,6.47,0,.81.8,1.92,1.3,3.24,1.3,2.53,0,4.55-2,4.55-4.5,0-.7-.61-1.3-1.32-1.3s-1.31.6-1.31,1.3c0,1.1-.91,1.9-1.92,1.9s-1.92-.9-1.92-1.9c0-.7-.61-1.3-1.32-1.3s-1.32.6-1.32,1.3c0,1.1-.91,1.9-1.92,1.9s-1.92-.9-1.92-1.9c0-.7-.61-1.3-1.32-1.3s-1.31.6-1.31,1.3c0,1.1-.91,1.9-1.92,1.9s-1.92-.9-1.92-1.9c0-.7-.61-1.3-1.31-1.3s-1.32.6-1.32,1.3c0,2.5,2.02,4.5,4.55,4.5Z"/>
        <path d="M38.61,64.57c1.32,0,2.43-.5,3.24-1.3.81.8,1.92,1.3,3.24,1.3,2.53,0,4.55-2,4.55-4.5,0-.7-.61-1.3-1.31-1.3s-1.32.6-1.32,1.3c0,1-.91,1.9-1.92,1.9-1.11,0-1.92-.9-1.92-1.9,0-.7-.61-1.3-1.32-1.3s-1.32.6-1.32,1.3c0,1-.91,1.9-1.92,1.9-1.11.1-2.02-.8-2.02-1.8,0-.7-.61-1.3-1.31-1.3s-1.32.6-1.32,1.3c.1,2.4,2.12,4.4,4.65,4.4Z"/>
        <path d="M59.86,67.77c0-.7-.61-1.3-1.31-1.3s-1.32.6-1.32,1.3c0,2.5,2.02,4.5,4.55,4.5s4.55-2,4.55-4.5c0-.7-.61-1.3-1.32-1.3s-1.31.6-1.31,1.3c0,1.1-.91,1.9-1.92,1.9s-1.92-.8-1.92-1.9Z"/>
        <path d="M41.76,37.12c.71-.3,1.01-1,.71-1.7-.3-.6-1.01-1-1.72-.7-.71.3-1.01,1-.71,1.7.3.6,1.11.9,1.72.7Z"/>
        <polygon points="68.87 61.62 69.88 63.92 72.31 63.02 71.3 60.62 68.87 61.62"/>
        <path d="M61.89,53.72c4.96,0,9-4,9-8.9s-4.05-8.9-9-8.9-9,4-9,8.9,4.05,8.9,9,8.9ZM61.89,38.42c3.54,0,6.47,2.9,6.47,6.4s-2.93,6.4-6.47,6.4-6.47-2.9-6.47-6.4,2.93-6.4,6.47-6.4Z"/>
        <path d="M61.89,43.52c.71,0,1.31.6,1.31,1.3s.61,1.3,1.32,1.3,1.32-.6,1.32-1.3c0-2.1-1.72-3.8-3.84-3.8-.71,0-1.31.6-1.31,1.3s.51,1.2,1.21,1.2Z"/>
        <path d="M61.89,34.62c.71,0,1.31-.6,1.31-1.3v-2.5c0-.7-.61-1.3-1.31-1.3s-1.32.6-1.32,1.3v2.5c.1.7.61,1.3,1.32,1.3Z"/>
        <path d="M63.21,58.82v-2.5c0-.7-.61-1.3-1.31-1.3s-1.32.6-1.32,1.3v2.5c0,.7.61,1.3,1.32,1.3s1.31-.6,1.31-1.3Z"/>
        <path d="M71.1,37.62l1.82-1.8c.51-.5.51-1.3,0-1.8-.51-.5-1.32-.5-1.82,0l-1.82,1.8c-.5.5-.5,1.3,0,1.8.51.5,1.32.5,1.82,0Z"/>
        <path d="M52.79,52.02l-1.82,1.8c-.81.8-.2,2.2.91,2.2.3,0,.71-.1.91-.4l1.82-1.8c.51-.5.51-1.3,0-1.8-.51-.5-1.31-.5-1.82,0Z"/>
        <path d="M77.37,44.82c0-.7-.61-1.3-1.31-1.3h-2.63c-.71,0-1.32.6-1.32,1.3s.61,1.3,1.32,1.3h2.63c.81,0,1.31-.6,1.31-1.3Z"/>
        <path d="M47.73,46.12h2.53c.71,0,1.32-.6,1.32-1.3s-.61-1.3-1.32-1.3h-2.63c-.71,0-1.32.6-1.32,1.3.1.7.71,1.3,1.42,1.3Z"/>
        <path d="M69.28,52.02c-.5.5-.5,1.3,0,1.8l1.82,1.8c.3.3.61.4.91.4,1.11,0,1.72-1.4.91-2.2l-1.82-1.8c-.51-.5-1.32-.5-1.82,0Z"/>
        <path d="M52.79,37.62c.3.3.61.4.91.4,1.11,0,1.72-1.4.91-2.2l-1.82-1.8c-.51-.5-1.32-.5-1.82,0-.51.5-.51,1.3,0,1.8l1.82,1.8Z"/>
      </g>
    </g>
  </g>
</svg>