<?xml version="1.0" encoding="UTF-8"?>
<svg id="Capa_1" data-name="Capa 1" xmlns="http://www.w3.org/2000/svg" viewBox="0 0 70 70">
  <defs>
    <style>
      .cls-1 {
        fill: #d6ff57;
      }

      .cls-2 {
        fill: #fff;
      }
    </style>
  </defs>
  <path class="cls-1" d="M35,63.29c-15.87,0-28.77-12.91-28.77-28.77S19.13,5.75,35,5.75s28.77,12.91,28.77,28.77-12.91,28.77-28.77,28.77ZM35,6.75c-15.31,0-27.77,12.46-27.77,27.77s12.46,27.77,27.77,27.77,27.77-12.46,27.77-27.77S50.31,6.75,35,6.75Z"/>
  <path class="cls-2" d="M46,21.73c-.23-.12-.45-.25-.67-.39-.63-.41-1.2-.9-1.71-1.45-1.27-1.46-1.75-2.94-1.93-3.97h0c-.15-.86-.09-1.42-.08-1.42h-5.81v22.45c0,.3,0,.6-.01.89,0,.04,0,.07,0,.11,0,.02,0,.03,0,.05h0c-.12,1.65-1.05,3.12-2.48,3.93-.73.42-1.56.64-2.4.63-2.71,0-4.9-2.21-4.9-4.93s2.19-4.93,4.9-4.93c.51,0,1.02.08,1.51.24v-5.91c-2.98-.39-6,.5-8.3,2.43-1,.87-1.84,1.91-2.49,3.07-.25.42-1.17,2.12-1.28,4.88-.07,1.56.4,3.19.62,3.86h0c.14.41.69,1.75,1.58,2.89.72.91,1.56,1.71,2.52,2.37h0s.01,0,.01,0c2.81,1.91,5.93,1.78,5.93,1.78.54-.02,2.35,0,4.4-.97,2.28-1.08,3.57-2.69,3.57-2.69.83-.96,1.49-2.05,1.95-3.24.53-1.38.7-3.04.7-3.7v-11.91c.07.04,1.01.66,1.01.66,0,0,1.35.87,3.46,1.43,1.51.4,3.55.49,3.55.49v-5.76c-.71.08-2.16-.15-3.65-.89Z"/>
</svg>