<?xml version="1.0" encoding="UTF-8"?>
<svg id="Capa_1" data-name="Capa 1" xmlns="http://www.w3.org/2000/svg" viewBox="0 0 400 150">
  <defs>
    <style>
      .cls-1 {
        fill: #d6ff57;
      }

      .cls-2 {
        fill: #141414;
      }

      .cls-3 {
        fill: #fff;
      }
    </style>
  </defs>
  <rect class="cls-2" x="21.66" y="43.66" width="350.91" height="86.13" rx="37.04" ry="37.04"/>
  <g>
    <path class="cls-3" d="M125.46,76.81h-12.26v-8.08h35.98v8.08h-12.26v23.37h-11.46v-23.37Z"/>
    <path class="cls-3" d="M151.33,85.68v-16.96h11.46v16.34c0,5.1,3.38,7.6,8.79,7.6s8.74-2.5,8.74-7.6v-16.34h11.42v16.96c0,9.84-7.47,15.29-20.21,15.29s-20.21-5.45-20.21-15.29Z"/>
    <path class="cls-3" d="M195.69,68.73h11.47v23.06h19.11v8.39h-30.58v-31.45Z"/>
    <path class="cls-3" d="M227.72,85.68v-16.96h11.47v16.34c0,5.1,3.38,7.6,8.79,7.6s8.74-2.5,8.74-7.6v-16.34h11.42v16.96c0,9.84-7.47,15.29-20.21,15.29s-20.21-5.45-20.21-15.29Z"/>
    <path class="cls-3" d="M272.08,68.73h14.85l10.89,21.35h.09l10.76-21.35h15.02v31.45h-10.81v-19.72h-.09l-9.84,19.72h-9.8l-10.19-19.72h-.09v19.72h-10.81v-31.45Z"/>
  </g>
  <circle class="cls-1" cx="61.96" cy="52.46" r="39.23"/>
  <g>
    <g>
      <g>
        <polygon class="cls-2" points="57.47 41.93 51.59 41.93 51.59 31.3 62.01 31.3 62.01 33 53.29 33 53.29 40.23 57.47 40.23 57.47 41.93"/>
        <polygon class="cls-2" points="52.97 50.86 43.3 50.86 43.3 40.23 57.51 40.23 57.51 41.93 45 41.93 45 49.16 52.97 49.16 52.97 50.86"/>
        <polygon class="cls-2" points="47.89 59.79 38.22 59.79 38.22 49.16 52.44 49.16 52.44 50.86 39.92 50.86 39.92 58.09 47.89 58.09 47.89 59.79"/>
        <polygon class="cls-2" points="62.01 68.73 33.69 68.73 33.69 58.09 52.44 58.09 52.44 59.79 35.4 59.79 35.4 67.02 62.01 67.02 62.01 68.73"/>
      </g>
      <g>
        <polygon class="cls-2" points="72.44 41.93 66.56 41.93 66.56 40.23 70.73 40.23 70.73 33 62.01 33 62.01 31.3 72.44 31.3 72.44 41.93"/>
        <polygon class="cls-2" points="80.73 50.86 71.06 50.86 71.06 49.16 79.03 49.16 79.03 41.93 66.51 41.93 66.51 40.23 80.73 40.23 80.73 50.86"/>
        <polygon class="cls-2" points="85.81 59.79 76.13 59.79 76.13 58.09 84.1 58.09 84.1 50.86 71.59 50.86 71.59 49.16 85.81 49.16 85.81 59.79"/>
        <polygon class="cls-2" points="90.33 68.73 62.01 68.73 62.01 67.02 88.63 67.02 88.63 59.79 71.59 59.79 71.59 58.09 90.33 58.09 90.33 68.73"/>
      </g>
      <path class="cls-2" d="M67.36,68.73h-10.7V31.3h10.7v37.42ZM58.37,67.02h7.29v-34.02h-7.29v34.02Z"/>
      <rect class="cls-2" x="57.51" y="35.77" width="9" height="1.7"/>
      <rect class="cls-2" x="57.51" y="40.23" width="9" height="1.7"/>
      <rect class="cls-2" x="57.51" y="44.7" width="9" height="1.7"/>
      <rect class="cls-2" x="57.51" y="49.16" width="9" height="1.7"/>
      <rect class="cls-2" x="57.51" y="53.63" width="9" height="1.7"/>
      <rect class="cls-2" x="57.51" y="58.09" width="9" height="1.7"/>
      <rect class="cls-2" x="57.51" y="62.56" width="9" height="1.7"/>
      <path class="cls-2" d="M69.3,33h-14.57v-8.31h14.57v8.31ZM56.43,31.3h11.17v-4.91h-11.17v4.91Z"/>
      <rect class="cls-2" x="51.75" y="24.69" width="19.84" height="1.7"/>
    </g>
    <path class="cls-2" d="M64.63,33h-5.23v-5.84h5.23v5.84ZM61.1,31.3h1.82v-2.43h-1.82v2.43Z"/>
  </g>
</svg>