<?xml version="1.0" encoding="UTF-8"?>
<svg id="Capa_1" data-name="Capa 1" xmlns="http://www.w3.org/2000/svg" xmlns:xlink="http://www.w3.org/1999/xlink" viewBox="0 0 400 150">
  <defs>
    <style>
      .cls-1 {
        fill: none;
      }

      .cls-2 {
        fill: #d6ff57;
      }

      .cls-3 {
        fill: #141414;
      }

      .cls-4 {
        fill: #fff;
      }

      .cls-5 {
        clip-path: url(#clippath);
      }
    </style>
    <clipPath id="clippath">
      <rect class="cls-1" x="-2371.07" y="211.24" width="1936.87" height="860.71"/>
    </clipPath>
  </defs>
  <g class="cls-5">
    <image width="3690" height="5166" transform="translate(-2371.07 -1521.88) scale(.72)" xlink:href="../../../../../../Downloads/DSC03048.jpg"/>
  </g>
  <g>
    <rect class="cls-3" x="25.75" y="44.71" width="350.91" height="86.13" rx="37.04" ry="37.04"/>
    <g>
      <path class="cls-4" d="M129.56,77.85h-12.26v-8.08h35.98v8.08h-12.26v23.37h-11.47v-23.37Z"/>
      <path class="cls-4" d="M155.43,86.73v-16.96h11.47v16.34c0,5.1,3.38,7.6,8.79,7.6s8.74-2.5,8.74-7.6v-16.34h11.42v16.96c0,9.84-7.47,15.29-20.21,15.29s-20.21-5.45-20.21-15.29Z"/>
      <path class="cls-4" d="M199.79,69.77h11.47v23.06h19.11v8.39h-30.58v-31.45Z"/>
      <path class="cls-4" d="M231.81,86.73v-16.96h11.47v16.34c0,5.1,3.38,7.6,8.79,7.6s8.74-2.5,8.74-7.6v-16.34h11.42v16.96c0,9.84-7.47,15.29-20.21,15.29s-20.21-5.45-20.21-15.29Z"/>
      <path class="cls-4" d="M276.17,69.77h14.85l10.89,21.35h.09l10.76-21.35h15.02v31.45h-10.81v-19.72h-.09l-9.84,19.72h-9.8l-10.19-19.72h-.09v19.72h-10.81v-31.45Z"/>
    </g>
    <circle class="cls-2" cx="66.06" cy="53.51" r="39.23"/>
    <g>
      <path class="cls-3" d="M87.06,70.92h-7.18c1.41-12.33-2.88-21.64-6.72-27.27,2.51,2.08,5.19,5.14,7.14,9.57.06.13.2.21.34.2.15-.02.27-.12.29-.27.62-3.09,1.48-12.55-9.52-17.84,0,0,6.77-1.13,10.55,1.97.12.1.28.1.41.02.12-.09.18-.24.13-.39-.93-2.7-4.17-8.75-14.13-6.65,0,0-3.92-4.71-9.92-1.63-.13.07-.2.21-.18.35.02.14.13.27.28.28,1.73.13,2.7.07,4.52,1.96,0,0-8.62-2.58-13.7,5.6-.08.14-.06.31.06.42.12.11.3.12.43.03,1.89-1.36,5.65-3.29,10.51-1.98,0,0-12.47,6.16-3.74,21.03.07.12.21.19.35.16s.25-.13.27-.27c.49-2.74,2.25-11.05,6.05-14.87,8.33,11.44,3.47,25.77,1.94,29.57h-21.28c-.94,0-1.7.76-1.7,1.7s.76,1.7,1.7,1.7h43.1c.94,0,1.7-.76,1.7-1.7s-.76-1.7-1.7-1.7ZM68.14,42.68c.2.25.42.51.64.79l-.21.05c-.14-.28-.28-.56-.43-.85ZM76.71,64.84c-2.35.59-4.61.5-6.14.31.15-.69.29-1.42.41-2.18.38.03.81.05,1.29.05,1.21,0,2.69-.14,4.27-.56.08.77.14,1.56.17,2.37ZM71.4,59.6c.06-.72.09-1.47.11-2.22.17,0,.35.01.54.01.94,0,2.11-.09,3.5-.35.18.66.33,1.35.48,2.04-1.81.55-3.49.59-4.62.51ZM71.39,53.96c-.06-.76-.16-1.53-.28-2.31l2.31-.52c.38.83.74,1.71,1.08,2.63-1.36.22-2.41.24-3.11.2ZM70.39,48.33c-.15-.54-.31-1.08-.5-1.62l1-.24c.31.49.62,1,.93,1.54l-1.43.32ZM68.89,70.92c.25-.69.54-1.51.82-2.44.85.12,1.93.23,3.15.23s2.47-.1,3.82-.37c-.05.84-.12,1.7-.23,2.58h-7.56Z"/>
      <path class="cls-3" d="M60.33,67.52c0-.94-.76-1.7-1.7-1.7h-20.71c-.94,0-1.7.76-1.7,1.7s.76,1.7,1.7,1.7h20.71c.94,0,1.7-.76,1.7-1.7Z"/>
      <path class="cls-3" d="M43.79,64.46h20.71c.94,0,1.7-.76,1.7-1.7s-.76-1.7-1.7-1.7h-20.71c-.94,0-1.7.76-1.7,1.7s.76,1.7,1.7,1.7Z"/>
      <path class="cls-3" d="M92.98,63.77h-10.93c-.94,0-1.7.76-1.7,1.7s.76,1.7,1.7,1.7h10.93c.94,0,1.7-.76,1.7-1.7s-.76-1.7-1.7-1.7Z"/>
    </g>
  </g>
</svg>