<?xml version="1.0" encoding="UTF-8"?>
<svg id="Capa_1" data-name="Capa 1" xmlns="http://www.w3.org/2000/svg" viewBox="0 0 510 150">
  <defs>
    <style>
      .cls-1 {
        fill: #1c1c1c;
      }

      .cls-2 {
        fill: #e51717;
      }
    </style>
  </defs>
  <g>
    <path class="cls-1" d="M4.25,30.84h22.62v45.51h37.71v16.56H4.25V30.84Z"/>
    <path class="cls-1" d="M97,30.84h26.27l30.25,62.07h-23.49l-4.85-10.83h-30.95l-4.77,10.83h-23.4l30.95-62.07ZM120.84,69.33l-10.92-24.53h-.17l-11.1,24.53h22.19Z"/>
  </g>
  <g>
    <path class="cls-2" d="M175.14,93.7c-2.35-19.38-13.37-55.23-21.62-71.16,20.34.28,29.51-1.1,35.56,22.82,4.77,18.82,6.04,31.17,12.16,50.89,1.78,5.65,4.69,12.62,7.75,12.62,1.85,0,3.77-2.62,5.48-9.65,2.2-9.1,3.63-23.03,3.63-35.3,0-6.48-.43-12.48-1.21-17.03-1.42-7.86-3.77-26.34-13.44-26.34-1.21,0-2.49.28-3.91.9,3.63-5.93,10.1-8.83,16.71-8.83,10.17,0,21.48,6.9,21.48,21.03,0,13.1-8.46,46.61-18.06,68.4-5.41,12.14-15.5,20.82-24.75,20.82s-17.28-8.14-19.77-29.17Z"/>
    <path class="cls-2" d="M239.87,122.66c4.69-15.24,7.04-33.65,7.04-51.92,0-17.17-1.99-34.2-5.9-48.61h30.23c-3.91,14.41-5.97,31.51-5.97,48.68,0,18.2,2.35,36.55,7.04,51.85h-32.43Z"/>
    <path class="cls-2" d="M299.54,122.11c-4.2-.55-7.89-.69-10.95-.69-7.97,0-12.02,1.24-12.02,1.24,2.7-5.17,5.62-36.27,5.62-62.68,0-18.2-1.42-34.13-5.26-37.86,3.98.35,7.97.48,11.88.48,10.31,0,20.55-.83,30.08-.83,12.73,0,32.36,4.76,32.36,19.03,0,3.31-1.14,7.17-3.77,11.58-4.12,6.9-12.52,12.34-19.42,17.1,2.28-.55,4.62-.83,6.97-.83,12.3,0,24.32,7.45,24.32,20,0,1.52-.21,3.17-.57,4.83-4.91,22-27.74,29.3-48.5,29.3-3.7,0-7.25-.28-10.74-.69ZM326.85,39.57v-.97c0-9.86-3.06-14-6.9-14-4.48,0-9.89,5.45-12.87,14.07-3.2,9.03-4.12,21.93-4.12,35.03,0,10.14.57,20.41,1.14,29.24,4.84-28.2,22.19-28.55,22.76-63.37ZM336.66,91.14c0-8.41-4.05-13.79-9.74-13.79-14.58,0-21.19,31.86-21.76,40.96h3.27c19.77,0,28.24-15.24,28.24-27.17Z"/>
    <path class="cls-2" d="M433.75,140.59c-23.04-3.59-36.2-23.72-36.2-45.37,0-2.41.14-4.89.5-7.31l.07-.34c-6.04,7.79-10.31,16.34-10.31,26.89,0,2.69.29,5.45.85,8.34h-29.66c4.05-6.41,5.69-24.75,5.69-44.2,0-23.17-2.28-47.99-5.12-56.06,3.63.35,7.18.48,10.67.48,10.74,0,20.77-1.24,31.22-1.24,12.3.07,31.79,5.72,31.79,19.03,0,3.38-1.21,7.24-4.12,11.58-6.69,10.14-16,18.48-24.11,27.1,1.85,16.76,15.65,37.79,37.41,37.79,2.49,0,5.05-.28,7.68-.83,9.6-2.07,12.94-8.07,12.94-15.17,0-9.1-5.48-20.13-10.38-27.65,1.35,4.07,1.99,8,1.99,11.58,0,12.48-7.47,21.65-18.21,21.65-6.9,0-15.08-3.72-23.47-12.83,1.92.76,3.63,1.04,5.19,1.04,19.91,0,16.43-54.47,41.18-64.47-1.64-3.86-3.84-6.76-6.54-8.48,18.56,0,28.52,1.59,33.36,11.45,7.47,15.45,8.39,60.89,19.63,89.23h-11.95c-29.37,0-23.47-61.02-33.07-88.74-9.17,7.86-12.3,14.21-12.3,19.93,0,9.17,8.11,16.83,12.94,26.69,4.55,9.31,6.69,19.17,6.69,28.06s-2.06,16.41-6.19,21.58c-5.41,6.9-13.8,10.69-22.83,10.69-1.78,0-3.56-.14-5.33-.41ZM408.43,39.64v-1.04c0-9.79-3.06-14-6.9-14-4.41,0-9.89,5.52-12.87,14.14-3.2,9.1-4.12,22-4.12,35.17,0,10.07.57,20.34,1.14,29.17,4.84-28.2,22.19-28.62,22.76-63.44Z"/>
  </g>
</svg>